<mxfile host="Electron" agent="Mozilla/5.0 (Macintosh; Intel Mac OS X 10_15_7) AppleWebKit/537.36 (KHTML, like Gecko) draw.io/26.0.16 Chrome/132.0.6834.196 Electron/34.2.0 Safari/537.36" version="26.0.16">
  <diagram name="Page-1" id="qe3PIXOb2OE6MumX0_a_">
    <mxGraphModel dx="1312" dy="956" grid="1" gridSize="10" guides="1" tooltips="1" connect="1" arrows="1" fold="1" page="1" pageScale="1" pageWidth="827" pageHeight="1169" math="0" shadow="0">
      <root>
        <mxCell id="0" />
        <mxCell id="1" parent="0" />
        <mxCell id="LnaqzA2VaRDY9GP4299t-33" value="" style="rounded=0;whiteSpace=wrap;html=1;" vertex="1" parent="1">
          <mxGeometry x="160" y="320" width="1080" height="620" as="geometry" />
        </mxCell>
        <mxCell id="LnaqzA2VaRDY9GP4299t-7" value="" style="group;labelPosition=center;verticalLabelPosition=bottom;align=center;verticalAlign=top;" vertex="1" connectable="0" parent="1">
          <mxGeometry x="200" y="561" width="138.89" height="100" as="geometry" />
        </mxCell>
        <mxCell id="LnaqzA2VaRDY9GP4299t-5" value="" style="shape=image;aspect=fixed;image=data:image/png,iVBORw0KGgoAAAANSUhEUgAABLAAAAIpCAYAAACymMF+AAAAAXNSR0IArs4c6QAAIABJREFUeF7s3QVYlNkeBvB3QBFQsMDuXHXtdu3u7u7u7u7u7u6utTvWzrU7AJsQUWDu/R8clh5AGGbwPc9zn8vCF+f7nW8G5+Wc/6fJXbSK1tnFBWwUoAAFKEABClCAAhSgAAUoQAEKUIACFDBGAU2eYlW0X5wZYBnj4LBPFKAABShAAQpQgAIUoAAFKEABClCAAoCGM7B4G1CAAhSgAAUoQAEKUIACFKAABShAAQoYswBnYBnz6LBvFKAABShAAQpQgAIUoAAFKEABClCAApyBxXuAAhSgAAUoQAEKUIACFKAABShAAQpQwLgFOAPLuMeHvaMABShAAQpQgAIUoAAFKEABClCAAr+9AGtg/fa3AAEoQAEKUIACFKAABShAAQpQgAIUoIBxC3AGlnGPD3tHAQpQgAIUoAAFKEABClCAAhSgAAV+ewHOwPrtbwECUIACFKAABShAAQpQgAIUoAAFKEAB4xaIfgGWRoMfCRLA09oaMDeH+bdvMHN3R4wvX4x7JNg7ClCAAhSgAAUoQAEKUIACFKAABUItYG1pga/fvod6e25o2gLRagnh98SJ8apZC2gsLQKNiva7JxKcOYW4/1yExtPLtEeNvacABShAAQpQgAIUoAAFKEABCvzmAqmSJMALh4+/ucLvc/nRYgaWl40N3lWpAve0adWsq5CamasrbK9dQ7wzZ6Hx8vx9RppXSgEKUIACFKAABShAAQpQgAIUiEYCDLCi0WCG4lI0uYtV0To7u4RiU+PcxD19ejg0ahTmzlnfvg27Q4dh/tUtzPtyBwpQgAIUoAAFKEABClCAAhSgAAWiVoABVtT6G/rsJj0DyyNpErxp0zbcZrFev0ayFSvCvT93pAAFKEABClCAAhSgAAUoQAEKUCBqBBhgRY17VJ3VpAOsl126wDN+/F+ys7p1C0l27wa02l86DnemAAUoQAEKUIACFKAABShAAQpQwHACDLAMZ20MZzLNAEujwbtq1eCaI0eEGCZZuxZWz575HsvbwgIaT09ovL0j5Pg8CAUoQAEKUIACFKAABShAAQpQgAIRK8AAK2I9jf1oJvkUwu92dnjdsWOE2cZ68RzJVq+Bl5UlHBs2hEfyFOrYsR/ch92uXTDz4GM5IwybB6IABShAAQpQgAIUoAAFKEABCkSAAAOsCEA0oUOYZBF357x58aFSpQhljn/0KD6WKAFNjBj+jmv+5QuSL1vOYu8Rqs2DUYACFKAABShAAQpQgAIUoAAFfk2AAdav+Zna3iYZYDnUrw/3TJkMZh3j40ekWLxYLStkowAFKEABClCAAhSgAAUoQAEKUCDqBRhgRf0YGLIHJlkD60WPHvCysdHvpNXC3OEtrB0d4ZIzF6DR6N8nmC3kaYXy1EI2ClCAAhSgAAUoQAEKUIACFKDA7yag0WiQ5Y8MqFa5LJIlSYS0aVPh4aNnePnqNbbuOIDXbxygNfDD0Rhg/V53oUnWwHravz9gYRHiSJm7uSHpxnWwdHRQTxj0jhkTH0qVwZf8BcM1wnb798Pm6tVw7RueneLEiY3Eiezg7v4Nbx2cDP5GEJ4+G9s+ElfGjx9P/c/R0Qmubl+NrYvsDwWiXCCurY16r/ns7AInp/dR3h92gAIUoAAFKEABClDAuARixoyJ6lXKonKFUrC3Txhs556/eI1NW/fg/MUr8PIyzAPRGGAZ170S2b0xuRlYXlZWeNGlC2BpGaKN7cXzSHTkENwyZMK3JEmQ4OJ5FWQ969oTXrFjh9k19t27SHDkCGI4O4d539DuECNGDJQqXhgtGtVBnpzZIAm3tG/fvuHC5etYtX4bLl+7CU9Pr9AeMkK2MzMzgwRq3l5eBg2BwnveVCmToXbViqhfuwrix4urDOQvAU7vPmDJqg04cPgkPn76HCE20f0g6dKkQv+eHZDrzyzw1mpRpFydKLvk7h1bokRRnwC6Q48heP/hY5T1xdRPLG8ttatVRKO6NZAtS0bfy/n61R1HTpzF+q27cOPWv6Z+mb/U//C+//zSSbkzBShAAQpQgAIUMDKBOLGt0bt7O+TLm0P17McPT7x8/RafP31Wnw1tbOIgkX1CJEmSCOZmZmqb7TsPYOOWPfjm4RHpV8MAK9KJjeoEJjMDSxvTAh/LlcOXXDmh+fnCCEky8fYtsPn3Lp6374wf9vZIcOggEly6iLe168ItS7Zgd9V+94DV8+fwihkTP1KnCbTsMMbHD0i8cTMsPn6I0IGUsGpw3y5oWr+mCltevXmLK9fuwMYmNvLkyIZ48WxVoLV6w3ZMmD4/Qs+t72AZ06fF7o1LcPfeQ9Rp1knf5hH28/CcN0XypDi8c43qg7yhXrx8FS6uX5Htj0zIkC61Mrx87Taate8ZYf2MzgfatXEJMqVPqwK/h0+eoWXHvlF2uQe3r0LqlMnV+bv1H4kjx89EWV9M+cSxYsXCwpljUShfbvVec//hE/XatrNLiAJ5ciCWZSxIdD5o5CTs3HfYlC/1l/oenvefXzohd6YABShAAQpQgAJGJhAzRgysWjYDEmJJc3B8h6Ejp6iJAQHbn1kzo3+fjogX11b96OSZi5g2c3GkXxEDrEgnNqoTmMQMLPeUKfGhalX8SBj8dEW/qlpPT6RYuxJWr1/D+c8ccE+XDnZHDsH861c87doDXnHjBTkIls+eIumOrWo7ad/t7PCmXkN4JghwXi8vxLl7F/a7dkXYYE4dOxhVKpSG0/sP6NJnOO7++0DNeJEWy8ICObNnwfTxw2ATJzZGT5qNbbsPRNi59R0oqj7Ihee8S+dOxF8F82HWghVYs2kH3H4uG5TgKk2qFJgxcZgKZOYvXYe5i1fqu/Tf+ufyy+fc4W3qryxFytWG21f3KPPIlycHVi2YhjPnL6H4XwVw9uJltO06MMr6Y8onXjJnIooWyoerN+5g6JipePr8pe/lWFjERNmSRTFhRH/EjBkDHXsNxamzF035csPd9/C8/4T7ZNyRAhSgAAUoQAEKGKFA6xYNULNaedWzvfuPYPnqzSGuBpLPD/16dUD2P/9Q282evwInTp2P1CszRIAln8G7dGyhruPh42fYtmN/pF4TDx68gNHPwJIQyaFZs9At+9NqEevNayTavwexnJzgHSsWzPxMW/zyZw68q1ErSA3Nt29IO3s6NN5afMlXAJqvroh75zZcsmSFY82gl01ZPXqERNu3w+z791+6x1KlSAaZ6SL1Z2o16Yiv7kEHBVUrlsGUMYMgy3yKlK8LjwickikBT3AF98LyQS6k4wSFJEuZgqvzF5bzyrHlLwPnj2yHLMUsXqkB3r0P/JeBQvlzY8X8KXB2cVXL4by8Im45ZkjX8ks3SBTtnCxpYhzdvQ6v3zqgbPWmIfYiMq/d3Nwc29ctRPo0qVCzcQcsnTsJiewSolrDNnj85Pkv68hsI5+o2LRaWF9rcnUSkktYLn89q920Iz59/hLkRdetWRljhvRWfznr2GtIsDCROe7hGY2wmkTk+094+st9KEABClCAAhSggLEKZEifBtMnDVPdO37yHGbMWebbVfk3164tS9V/nz1/GZOmLfB3GbKf7C+tZbs+kVq+xRABVsIE8bFi8VR1PRcvXce4SXOMddhC1a/SJYugcYOacHR6jyEjJodqH2PZyKhnYGnNzfGkb1+YxYwZpJe5kyOS7NsFqzdv8b50WXhBi8THjqptXTJmhGP9xrC5cgk29+/B6uljfLdLjJcdgl4CF/PdO6RePB8uf2SFY5166hip5s+B9OFlh87Bjpfd3r2wuX493OMp64SP7F6HJIntMWPeMixeuSHEYx3etRZJE9ujYatuuP3vA99tLSwsUKtqeZQrVRS5cmTFtZt3cejoaTVTy9vbfwG9ru0lPdZi7uLVKF6kAPp0a4eM6dPg5p172LB1N3bvP6LCrAQJ4qFPl7awtY2jZmV8/uKMYyfPqVliMsNJ1yxixlR1kkoWK4zkSROrD8V7DhzBzPkr4P7tW6DrkUCiVZO6KF+mOLJkSo879x5i+dotOHzsdJjOG/DA8kSM7WsWqm9LwPcpiDpX8ma7dslMWMaKhXY9BuLjR59aWAN7dcQXZ1csWLY2UH/lQ3+RAnmwZNVGPHvxSv18WL9uePriJdZu2okcf/6BwX26IGvmjGr/FMmSYNSkWfj+/UegY3Vt3xxJEyfC0jWb8PSZz8wX6VP+PDnRqG5VFCtSAM7OrlixfivWb97pW/ywUrmSatbMrv2H8c+VG4GOmy5tKrRpWt/f2Ehx7uEDuqkZaVZWVnj45DkWLl+DoyfOhfhQAFubOBjQsyOsra1RsWxxFZgePHISDk7vMWfRf7PWpEZQwzrVUKlcCeTKnhWnzv2DfX8fUzXG/IahyZImQZe2TXHh8jXsPXgM+fPkwMhBPdX923/YBL2vHV2Qee7iFbTpOgDVK5fFpFEDsXHbHoyaOCvQ/p3bNkXypEkwZsocZEyXGs0a1UaJooVw+coNLFm1Cddv3YUUomzdrB6aN6wNK0tL3Ln/EENHT8Xzl4GfNJo2dUr07d4euXNkhdi8euOIdZt3YvOOvfDw8Amvs2XJhMZ1q4d4LfLa8vualb/kSFAkr1mZFXjun2vYvf8Qjp4MPD5yfzo6fcDK9VtRo0p5dG3XTNUZuHT1Bpav2YLT5/7R6ygbbF+7EFkyZ0D9ll1x6869YPeRou4SXkorVrG+v6ArtOMu9ef6dmuHu/cfYcOWXWjcoBbat2gIa2srXL5+C5Omz8fT5z6vJ2lh3V63n7x+ShcvjDo1KqLEX4Xx6vVbLFqxDjv2HgryPo+s959QDQA3ogAFKEABClCAAiYiMGRAVxTMn1v1tm2n/v6WDeoLsLJlzYwJo/urfWfPW44jx89G2lUzwAo7bZVKpdGhTRO8fuOITt0Hh/0AUbiHUc/Ack+TBg5Ng575Ye7mitQL58EsQEAiTxt8V6UaXKTOla5Wlrc3kq5fg9jPn8GpQiU45ysQiNzq0UMk37Qe2hgx8K5cBZh5uMPuxAm4ZMwEx7oNgh0iM1dXpJo9G5oAIVFoxzRJ4kQ4vne9KnBXtHw9uP1cvhjc/vLhUWaMyPJCXUggBd9HDOyJTBnS4vv373j+6g3SpU4J+aD24PFT9BkyDo8eP/M95I71i2Cm0eDWnfuoUaUcXFzd8NbxnfqwL8eXIs69Bo2BzAyTukMB2+Onz1G1fhv17VLFCmP6+KGwtIyFr+7f1JTKtKlTqA/6EmQ179Abj/zMkin+V0GMHdYH9gkT4Ns3Dzx68gxSKNzS0hIPHj1RAYV8sNd33qB85HpPH9ysPgiv27ILU2Yt8g0Y9I3HyQOb1KyUBi27Btp0UJ/OKuho2q4nrly/rX5+8dhOVVD/xu1/0blNM8SKZQFvby1Wrt+C1k3rY8nKjZg+z+evEroms4ZO7N+I128dUalOS3h6eiJO7NgYM7Q3KpYtoe6Bl6/eqKWOErBcunoTLTv1VQFkwXw5sXLBNFy6dhPN2/cO1McRA7qjYd3qyk+Cnjo1KmHUoJ7qHnjy7IV6EED6dGkgYaNcg8yq0S2vDHiwxPZ2qp8B24NHT1GjUTv17cIF8qgZOsmTJVFPynz6/AUypk+HGDHMVT2lfsMn+AZ0Eu5sXT1fhT4e33+gReM6qsDj/sMn0GfwWH1Dg1ZN66N/j/boN2wC9h48ihjm5pDxksCxct2WgfbfunoesmXJjGWrN6NZw1r44uyiXhfSV3nNyHFqVimHIoXy4cnT57CxsUFi+4TKv++QcSpAkiavhQE9O6BR3epqPKQOmKPTO6RPmxoSGMsSvJad+qglluVLF8OsSSNCvJbOvYfh+GmfKdSyff8eHVSfZBwcHJ2QLq1PjTYZ9x4DRvkLjeR6JZiRULRA3px49/6jet3Ka02e8DJ/6WosWhFy+C3nvXxyt/pLS5V6rfW664pwevl5bwvLuOvq0R05cQ5xYluiYL7cePPWEZ5eXqqWmcx+lLE4cPiE6ktYt5d9EtnbYfLogciXO7t6rT/7f6icIX1aSL0GeR30HDja34MnIvP9Ry8oN6AABShAAQpQgAImJDB/1lj177PT5y5hynSfSQJ+W5HC+dR/fvjwCfcfPA7080njBiNL5vS48M9VjJ88L9Ku3BgDLPlMlDN7VjULzcxMg0ePn+P6zbv48SPwBIcC+XMhU4Z0eOvohAsXriJ16uSIG9cWz5+/Uv921rXYsa2RJ/ef6nP+p8/OuPfgMR48fOL7cysrS+TK6VPr+87dB3B2dlFfJ01ijzRpUqmvr169hT//zIzCBfOifJli6vPNomXr8f79Bzx89F9eEGmDFQEHNuoZWJ+LFMGn0qWDvMxE27bA9t5dOJWvhC+5ciHVsiWqsPqznn3gZR34KYPmX92Qeu5seNrY4EWn/0IKrZcX4l3+B3bHjwKynEwCop8f2Dxjx4ZD7Xr4lip1iNSJ16+H9ZP/bp6wjEu2PzJi65oFKmiq0dAnHAhLkw+8UmA9VYrk2LprP6bPXapqFcmLpl/3DmjaoCa+fv2GsjWb4ssXnycoSoCVMV0a9YFdPkAe/7kuOXPGdFg8a4J6ikT1hm3x+OkLWFtbqg/sG5fPUS+SZh16qaBGZuXIOU7s26gK9UlRbalPJB/mpXbOiAE9VIgyYsJMbN6+V53XLmEC7NuyDNZW1hg3dS627zmoPpDLkyvGDe+LciWLYtnqTZg+b1mI5w3Jp16tKhg1qBdkaZDMFDt64qwKBF68fK1q/UjIFlQLT4Albwrypn7s1DkcOHQC9x8/hecPT+zZtBQ/PKVuVB0V7uia1G5aNHM8Zi9c6TvTa1j/bqhfuyo2bd+rZuBJmCHhYv+eHdG8UW01W0hCQAlMTuzdoKwkfJBQym/btWEJ5E2tbPUmMDc3w/G9G2FvlwCN2/TAtZt31Kb2dgnV8jEJQDr0GKxmTAXV5J6KHdtKzRTbvXEp3jo4oXqjtipIk3spYfx42LlxKewSxFMzshav3KjCOFsbGwzu2xk1KpdT5q279Fff1wVYcn/ITK3T5y/h0LHTKkCV5YkhNVkOum/zMqRKmRxlazTF6zc+2y+aNR7FCudXMxFl5qDfpguwHN+9x6gJM3H89AX1Y3lAwpB+XVWIdevufXTtMxzvPnxUIV/ntk3QuW1znDr7Dzr09PkrRI5sf2DTyrlqBpEUNJcAT5q8PjatmKtmTTZp2xNXb9xWrwUJcQO2utUrYUCvTjj/z1V07jNcBYkyA+ngtpXq/yV0Wrluq/plJr90xg3rC5ltd+/hYzRs2Q0eP5cny/0p7nJNvQeNVcGptKKF82P2pBHq3DJT6sPHT8FyyvifOrBJzeBr0bFPiO5B/TCs464LpOQ1ICH20LHTVEgtTR7BPG3sEHUf68K0sG4vr/ExQ/uiTvWKWLB0LeYvW6NqLchrZFDvTqhVtQJWb9iGCdN9prQb4v0nzKjcgQIUoAAFKEABChipwPqVs9WT6PsMHBMo3ChRzOfJ4NLevfuo/oAdsNWvUxVNG9VS/37v1D34khS/evnGFmDJSoYObZtAavj6bTdv38PCJWvVH6Wl2draoG+P9siVM6vvZhJyibk8fGz5qs3Yuedv9bPcuf5E53ZNkTixvb9j7tl3BGs2bFcTQ+Tf0hI6Shs8fDJu372vvq5aqQzat2msvm7dsR+mjBuMhAnj+zvOidMXMH3Wkl8dCoPsb9QB1rsqVeCa22faYsCWaulCWDg64mm7jvBKlBhJtmxEnAf38WhI8LMg7Hdug+2dW/CKaYEf9nZwKlUGyfbtQczPX9RSweeNmsA7bnwkOHMKnnHj4kv+gtBaWuodiAQH/0bcy5f0bhfUBvIhfPHsCSpo6dov5BkcQe3fuF4NSAgiYYSEEgGbzI6SD8Qjxs/A5h371I8lwPojY3p07z8ShwM8ya1T22bo3qEF2nYbiLMXLqvtg6tFJU+akGDrwuWrgQpq582dHWsXz8DGrbsxatJsdZwRg3qgYe1qWLRiPWbOX+6vqzJ7bMe6RSp0KlWlUYjn1QctCfbsScORMkUyNYvGb9ux929MmDZfzV7x28ITYMksM1miOXTMNH/HWjZ3EooUzKvCFV3QoK5/YA+15K5eiy7qDUVm9Vw8tkMFOUEFCjMmDEXFsiVRq3EHFWjoxnrF2i2YPGuR7zmlH1L7a/+hE+g3bDx0tatkg0JlfGYg6VqOP7OoQGXrzn3Y8fMNMTjP4GpgjR7cCxIU7jt0DH2HjPe3u4SXJ/fLLDhbDBs7DVt3HfANsGTDMZPnYP2W0D/8oEyJIpg7dTRu3LqLhq27+55LQouxw/riydMXqFLf/2wiXYDVfcAotSxV1yR4Orl/k/rPqg0C188Sw1dvHFCvuc+S4ZpVy2Ps0L7oPWQsDh095e8627VshN5d2mDclLlYu3lnkIQSGB3asRovXr/xF07PnDgMFcqUwKZtezFy4sxA++qe/Niu+0CcOe/zGtQFWFKLzMHpnb99dK9xqWn17/1Hwb48KpcvhWnjhqjwUGZ4hbWFddz9PhG0dpMO+NfPX+YkJL157oCqV5e3RDUViId1e5kNtnzeZLU0tVWnfv4uR4rRH9+7QYWqhcvWUrOwDPX+E1ZXbk8BClCAAhSgAAWMUWD3Vp+aV9Xr+qy88dt0P5PvBVUDS77/V+F8GNDHp3xPUMeIqGs2tgBrzIi+6gFsskpixpylaoJH357t1Gc/+bf6gCE+JVTq1a6CZo1rqz+ur163DXf/fYhO7ZshTeoU6ue6AEv+3bxi8TQkiB8XT5+9wJLlG5Eta0ZVw0p+tn3XAaxcszXUAZaVZSyULFEE9WpVVstCpZ6Xq6ubWuFhCs2olxC+q14drjn8J5c6VKub15F8zy78iBcPHnb2sH7xHJ42tnjRsUuw7ol2bIXtXZ/ZKP81LVwzZMaHsuXwI6FduMYs3qnTiH/qZLj2laBDAo+Ll6+hZYAPYaE5oO7DbqdeQ3HijM9ME79N9yFPlun0/rlcSwKsZEkSo2DpmoG2ry8zmAb3Qrd+I9RSQmnBBVg+s04s1awjmc2la/Ki69Wptapx5TfA2rB8tqr1U7RCvUC1seTFlySRT6IsH9DlhRzWIu5+L0aWEEmAlTplMuTJlR1FCuRG1j8yqU1cXF3VUwhXrtviu0t4AiyZkVS6WmN/s6zkgLqgQEI6CeukyQfqU/s3qWLhJSo3UDPPShYthAUzxqrZWBJKBWwS3kwYOcA39JEP+yf2bVBvNBJW6JosQaxbozKatOuJq9dvqxlYuzcsUUvSZPaVzO6S2mUBQzt991dwAZaMo9RRKlymdpA1zmRW0JLZE1Q9rL5Dx/sLsOTag3rsbnB9kfBK6hvJww3uP/xvarLMXpLZf7LctFqDNv6WqeoCrIq1W/iraSUzc/45tlOFJflL1QhUG04Cjw+fPqNuM59ftLLc0iKWhRpfXbF/Wb6YK0c2NZNN/roSXIAlS+Q2rpijfnHJDDrdjDm5D66e3qeWUJar0VQFZgGbrsaXzG6bv9SnJpvcn9JvWXoasEn9NVkqqZsNFpxlmZJ/Ye6UUXoLswe3f1jHXRdIyXLnXEUqqVmJfpssExan8jWb4eXrt74BVmi379O1Ldq2aIhWnfvjzr8+f2Hy25o1qIVuHVti9KRZ2LB1Dwz5/qPvtcWfU4ACFKAABShAAWMX2LZhkVpZ07xNL1UL2W8LTYBVuWIpdGzbVO0rx4isZkwBViwLC2xYPVddatdeQ/HmrZP6OkH8eFg0d4LybNtpAN5/+IiVSySUioe1G3Zg8///sC0tXjxbLJk3SZWn0QVYdWpVRosmddRywq69hqsVLvLZuXaNimjRtK5aLdOh66BQB1jv33+ESdfAyl20itbZ5b8ZGpF1Y4XnuJ9KlMDnYsWC3TXh3wcQ99ZNmHl8w48ECeBUsTLc06YPdvs0s6dDa2aG181awurJIyTevw/e5mZ42m8QtOYxwtNFtU/Cvw/B9lLoiigHPIkEAVJY+Y2DI8pUa6K3D2lSp4RdgviQOlSy3Oz62f3qBi5VtZGq4RSwZUiXRi1p81u/SAIsmzhx1HKzgE2S2NGDe/ubnRVSkGRtZYX8eXOgQJ6cqpi5bCvFw2U9rbwg/QZYB7athLyoJfQJTfuVACuo48uH5fatGqN6pTJq5off5XXhCbDEW1cTyu/5kiZJhGN71qv6StUatlNBiRTqnj15JEaMn6mKf0vT1dbSZ7F8zWZMmb1YbSZ1lkoVK4RSVRur5WK62Vf3Hj5BHT+hVvq0qTB6SG/ILDkJYqTJ1N4TZy7iyIkzuP/wSaAAJ2A/gguwJHiQN1XdTLmA+0mB/Cun9vjW8NItIZQgSGbbBPe0y4DHkRBSanHJ/STL9AI2mUUoodTE6QuwasM23x/rAqwy1Zv4WzcuYdc/x3epX6KFy9YOdLxje9fj46cvvgGWem0niI/CBXKrIvvZsmRE+rRpEMPcTNWnkhlWQQVY0t95U8cgd85skFlUUotJ1yT0kuDN1c0N+UvWCHLoZYnnqoXTsP/QcVW/Tprcn1K7qn6LwAF9UDXagjpwwgTxcObvrSrUlHtfX5Oi9ebmMVSdOjEL67jrAiz5ZStjEbDJ+4HUe6tQu4Va4hvW7edOHYUyJf7SdxnqARFSDy+q33/0dpQbUIACFKAABShAASMSWLVkOuLHj4vps5fixM+SM367pwuxgpuB1b51Y1StXEZ9bu3Vb3SkXZkxBVi5c2XDqKG91R/spfC936arKTZnwUqcv3AF61f5PMlw1LiZuHLtlu+mUycOUTWxdAHW5PGD8EemDLhy9RZGjf9v9YZ8rt68br6aGFGvSScGWJF2h4XhwG4ZMsCpYcMw7BHyphnGjcLX9BnwpmETaL97IOOUiWqHkJYdhubkSVavhtUL/zWJQrOfbKMLO+RDvQQCUuMmpLZ60XT1FLfmHfuoZVU3zh5Qm5eo3BBOQewGSgztAAAgAElEQVQr9av2bl6Gh0+eoXqDtmpbCbCkeLjMAAnYwhJgyUyfDcvnIHvWzGqWyuETZ3Dh0nW1pCeJfUKsXzbbX4B1ZPdaaLUI8rxBXXNYAywphJ4yeVL1dLqQZhtJEfk61SupZXi6mU8hBVi6GS4Bi7g/fPwUTdsF/deEpfMm4a8CedGodXdVx2rGhGGq8Lks6dO1gb07oUWjOupJcn6fxhbQQp4ouXOvz/pn3ewmWZonS/Ty582J1QunqfpC23b53At+mwSV9WtVVkv+UiRLqmZnSQu4vC4o/+ACrL93rIbF/5cKSogWVJNZSjfOHVRF7mVppC7AunHnHhoGUSQ/uPu9Ud1qGD6ghwragg69NOp6Xrx+i4q1mql7S1pEBVjy9MH9W1eoc7//8EktmZQC+Jev3ETVSqUxpG/XIAMs3ayxwaOn+o6b7hplluHxfRvULMACpQLPgJTt5PUtr3N5mmPvwWPUrmENWIMzvXxyD+QPFmWqNfb1Cmpbqcd19ZRP0KpbbhnWcdcFUjK7SmZZBWzBBVih3V6cZZbizr2H8D2Igpi688nrT5bLRvb7T3Dm/D4FKEABClCAAhQwRYFJ4wapVRfyR9R2nQf4uwS/M7B0P/C7TFAmWKxeNkP9IXr7roNYuSbwapOIMjGmAEue2ihPbwzKbN7MMWqF0IIl63Dk2CnIDDdp4ybNxcVL13w55kwfjdSpkvsGWDOnjIA8cV4+g4ye8N8T2KVUzs7NS9QSxTqNOvgPsEZMxu07PisUalavgNbN66uvpQaW6c/AKlZFq6tQH1E3UUQdx8vaGs979oQmQB2j8B4/+fIlsHRyhHuq1DD/+hWxHB3wsfBf+Fi6bHgPCfNPn5BywYJwP4VQPuyvXToTOf/MooKXURP/uykDdkpmNMnMHpn9UrJKQ/XCkNlVMsvKb70cv/vpZnMcOHISvQf5fBiOqACrS7vm6Nq+OfYcOILRk2b7e9qXzD5Zv3SWvwBr86p5kFCgQKkagQIJeQH27tYW5hozzFqwQi1JDGuANX3CUFQqWxITZyzEqvVbgx3TmlUrYMKIfqo+k4RA0k7u3wgHp/dBPoVwnixjK1Ek0FMIZUlb8w5BF8OWN539W1ao5XtiI7NXpGCf1BbTNXki2qKZ4/wVddd3I0rBcZmxly5NSlW0u32rRmjVpB4CLpcL6jhSdFzqocnT7+RpeiV/1hoL7pz6lhDmKVY1yFlcBfPmwsqFU31nEOkCrOCeoBjU+a0sLdXsK5lhJmGtzAIK2KxiWeLA9pVqhpnfJ/xFVIA1fcIwVCpbQtWp2rrzgO8yQumHPElxYK9O/gIs+UXdq0tbtG5aF9t2H1R15wI2WUJ4/UzIsyarlC+FqeOGYM7iVZi/ZI3P/RnGp2QGN6Ybls1GrhxZMXbKHKzbHHwtMt3MUHlipgTdEuLplhCGdtwjO8Dq3bUt2rVoiMZte+JaEDP0AhpE9vuPvtcuf04BClCAAhSgAAVMSaBxgxpoWK+66vLw0dPUU/R0TV+A1bBeNVWjSdqwUVNx45bPA4gioxlTgCWfYTaumaseLNSqQx84O7uqS5bPAGuXz1IPXmrfeYD63Dl72ihV7+rajTsYPX6W+qxRqEBuDOzbRT25UDcDq3mT2qhbqwpevHyDrr2G+RKW/f9TBLt3auk720sKs69YNFX9fPzkubjwj08o1r1zK5QtXVR9HTDAeuvwDh26/vf5NDLGJ6KPadRF3OViXXPkxPuqVdTSv19tsRwcYL9vFywdHNSSQbdMmdRTBn+l2e3ZA5sbN37lEEicyF7N9HB3d1eF3OUFHtSMk4mjBqgnvMkTzdp0HaC2kcLeQ/t1VU/C69rXfxF4+UAt+1SvVFYFYxKQSQtvgCVF5/zWXpo3TeoTFVFPLHz42H/A0KhudQwf0N1fKDd59CBUq1QG0+YuVU8b9HuNEvgc3LYK9x89Qc1G7VU/dQFWwPMGhy1FtyeM6A/Hdx9Qt1lHNWsmYBMTmYFVu1pF9cTGJas2qk3kqXBe3t6+T0TT7ZfILgF2b1qm/noQcAZWSAGW7C/hotRAkmL5MttEwrLtfgqnW1tZ4uSBzZCZXEEt6ZKx7dm5lSqU7veJgQ3rVlNPeZTQZuTgnnjr4IhGrXv4ehYpkAdTxg7B4WOnMDJAICqB0MVjO+Hp5YWCpWriq7t7sPducAGWjKuM75ad+zFywkx/IZYUBdy6dhHSpU6BIWOmYvvug74zsMISYOXLnR1rFs9Qxe6l6H1wrXfXNmjXopG/hyBEVIAl9cbktVmhVnO8ePXGtwtSgHHVwqnInSObvwBLV/vs7MUr6Nx7qJrOG1TTFV1ftX4bJs7weUKerskvN5l9JYF2++6D1BMbpUVUgCVLWWUZqjz1UIriB1X0Xa5vyphBqFCmuL8HLoR13CM7wCqUP7eqHyh13+SJl35rbMnrXJbQVihTDJ17D1ezASP7/eeXfglwZwpQgAIUoAAFKGBkAlJzds70UapshoOjE0aOnelbnqNPj3aBejvt51PsMmdKjxGDe6in6T17/ko9xVBmCUVWM3SA5fb1KxwcAq+aOnHqHHbtPYzxowfgz6yZ8PbtOyxduUF9VmrWpDbSpUmFR4+fofcAn0klJYsXQu/uPo4vX73BGwcnZM+WGRpo1NPJdQFWbGtrLJwzHnHj2mD/weM4d+GyGpMuHZursjh7DxzF4mXr1ZPV1yyfiTixrVW5mC3b90HK/bRt1VBNCpCmC7BKFi+M3t3bqs8EUoPr/oMnQT5JMrLG7FeOa/QBllycU40acMue/VeuM1L2tXj6FMnXrYuQY8+cOFwVPdeo5V0jcezEOUgxY/kgJjOupo8fgpJFC6sibQFrSMkSwXRpUmPZmk2YtWA5vL281X59urdTs3MkAS5Svg5cXHwS4LAGWLogQ+rglKjUQIUf8kKUsEhCIwnG5OlyEkipelxFC2HW5BHqRbT7wBEMHDFJ/SxFsiSQZUgy28qnNtBV9X0pZidL7CQM8zszJLjzhgS+cOY4lPirIP598Ah9hozH8xevfvYL0GjM0KFVI3Tr0FL1v2r9Nnj6/KU63NolM5E3159o12OwelMA5FrMsHLBFOTNlV1dV1gDrOH9u6N+7ao4ff4fFMibC4VK1wxUyFqeCifBx8EjJzBwxGT88JTQQ4P06VJj2+r5qgZRqaqyPPSD72VLLS+Z0SX3gixBrVKvFZ4887kOafKGd+n4brW8Tp6od/f+I9+xKZQvF5bNm4wbt++hYauuId67wQVYsWNb49SBTeoNcczk2di4ba86vozr8P7d1DX7PX54ZmAN6dsFTRvUCnZppK7jco/JUjepKSUPB5B+RFSAtXnVXGTP+gc69R6KU2f/gay505hp0LF1E3Rp30K9VqfPW4alqzaqderb1y5QRfpL/6xPFhBX+ib3nbSzh7bB1iY2Bo2arJ4e6XNsM0i4Vb50MTW25Wo2VQGotIgKsORYi2aNR/EiBdT7gswIlCWsuteu3OfL505CgXy54OHxHcUq1vNdjhvWcY/sAEuuZfakkShXuijmL1uL+UtWw9vb5z1IAlCpIyazHsv9XL5oiPefCPllwINQgAIUoAAFKEABIxEomD8Xhgzopnrz8eMn9Og7yt8Tzv12U/4NlidXNowY4lNiRZ5s177LQH+rdCLjsgwdYAV3DTv3/K1CpyTyoKfRA2Bvl8Dfpl+cnTF05FQ8f/Ha9/tSI6xNiwbq369SDmXx8vUoXCgvcmXP4htgycalShRWM6nks4+uyb/fb92+hxFjZ/iuFGlUvwYa1feZNSdNtjl+8hxKl/SpG6sLsORz3Kql01XOIO3E6QuY/jOAjIwxishjGvVTCH3hzc3hkjMXPlSuFJHXHu5jaby8EO/kScQ7dy7cxwi4o9w8DWpXxaDendWNJh9gpRC6fD+RfULEtbXFvQeP1XI0KcLst0lAMH54P2TKkFYVcpcnqcWPZ4ukiROpYEPq6EgRd10La4AlLxSZIZYqRTL1hiWzrZq174U/MqXH2iUzIKmwBEHyqPp4tjYqVNm1/wjqVK+Ib988sPfvY75L9SqXL6lmQsgHeXkqg9SqSpY0kSr4fvzUeVW02v3bN9XV4M4bErpdwgSYMWEo8ubOoRLlt28d4ezqBlmqKW8i8nNZPte22yB/y9JKFS+M2ZMkdPMpWi1Pd5CC2x8+fsbJMxfU087CGmDpZpBJf9ds2oHxU+cF6rpdwvgY1q+bCi/ff/yEd+8+qCBIilt7fPdA264Dceuu/yesmWk0WDZ/Mgrly43HT1+gav3WgY4rs+4mjR6oZgG9ePVajY3UPUuZIimkOLrUprrsp1hgUKbBBViyrdRpmjNllErzX79xUEXNEye2RyK7hLj38DF6DRyDZy9eqcOGNcCSYx7dvU791Uaeuqc7TnDjLrXWpOC4bpZhRAVYMttRZjBKkCP3t8zQs0+YAJaWFmqZqrzm5LoXLl+PvwrmRfG/Cqh7Tl4jQbWjJ8+pGWvSihbKh3HD+6nXttR8cnZxVceW/5Zx6TNkrL/QMiIDLAmimjWsjS5tm6pflhLyyGtEZgTK+ElhfJkFOmDERH9PcQzruBsiwEqWJBFkqafMWJP6gfL6kanZqVOlUO+jUoNOHl6ga5H9/hNhvxB4IApQgAIUoAAFKGAEAvJvRXmaYNtWjdRTtOXfxZev3sTJ0xfw9NlLVdJGPvtly5YZJYoWRNY/MqrJCTLjavyUuarweGQ3QwRYskoiT64/Q7wU+fyuC6fk39tZMqdHqpTJ1R/AX7x4jXv3n6g6uLomn39l5YNGA5iZm8HV9asK/eTphPHi2mLGnKU4fvK87/by2VQmOci/c2ViyevXb9VqCr+z28Q+x59Z1NJE+Tz74OFT9dk3U8Z06jhXr9/B9+/f1depUiZT/ZO+yqSPe/f/e+J7ZI/Zrxxfk9uIa2AFvDDPuHHxuWhReCRNCi8rK2hjhPzkQG8LC+DnE9j0Iv34AbOfgxnUtuYeHjBzdVV1s2z+uQSLT4GXp+k9Ryg2kJkDdWtUVjedTP+T4OHDh0/498FjNcNKiqUH1eQmb1SvhgqxEsaPh0+fPuPfh0+wfvNO9eHYb+vVpQ3kSXETps8PdKiC+XKhbo1KWLVhu1q+pWtSc6l+rarq0Z5S+G3qnCXqR1kzZ0Cb5g1gZ5dAvXgkzNh78Kgqdt29Y0v1wVICt9kLV/oeS4qJN2tYU734YltbqZDo6Klz2LP/SKD+BHdefZQlihZCrarlIU9ek+V/3zy+q2BBZtJIQfSgirzLkrBmDWtB1g/LLDYJ/RatWI8/s2RSSx/nL13jW2x99OBeaprnwuUhz8Dr16MDZBnisjVbcO/BoyC7LW9cDetUU1NNZcmahCDPnr9UYyDhQlCtSMG8avnU2k07MW6qz6NaA7asmTOiYd2qSJ40CaysrODm5qamk27YtkeNk74WP15cDO7TGR8/f8GEaYHvFQkuWzWti8wZ0iF+/HjqzfHm7XtYvXG7v+WhMt49OrXE42cvsHCZ/hmLubJnRZP6NdS9PmLCTL1PLaxeuSyKFc4PZxc3NYOve8cWqmD9+GnzVcCkaxJsjBnSG25f3X2DJL8GMutLXm9Sg02a/JIuW7IoqlQopZ7AIr9Qnjx/qephSaA1rH93VYtsy479SJE8CTKmTxMiqRQT91t3SmqSNapTHenTpYKtjQ2c3n9QwdHGbbsDTbMe1r8bPn9xwZxF/72OdCerXrkcihXO5+/+1De28vOSRQuhaqUy6sEHMmtPrk/ea85fuqZqt8k6/KBaaMddfikP6t1Jvb4DLpWU40otNgmVJ85cqM4b1u399q1pw1qQ+0aK5H/96o4Hj5+oYFGuKWAzxPtPaPy5DQUoQAEKUIACFDAVgTKl/oLUxJKla/qaLBuUJ+099DOBQt8+v/JzQwRYv9K/4Pbt0LYJqlQsrf5oPWHKPPVvZpnx1qVDc7VLj74jVUjI5l/ApAKssA7eh5Kl4FxU/2PW4eGBFEuXImYkhVJh7Te3p4A+gWXzJqFw/ryoUr8V39j0YfHnFKAABShAAQpQgAIUoMAvCcSKFQvtWzdC6ZJF1IoRaT5L37Rq+Zu31htr1m3Fjt2Hfuk8Yd3ZVAMsmbkmTyaUOlZ+m/wRefnqzdizL/DkjrDaRMftTaIGVnjhQxNgmbu5Icnq1bD48F+NofCej/tRwBACMtNn98alOHLyLLoFKNxviPPzHBSgAAUoQAEKUIACFKDA7ylgEyc2kiSxhwRasppGVjB8c/8GeXq1lI8xdDPVAEucZJVHzuxZkS5tSrWc8O1bJ9y6c48TFEK4iX7rGVgWb94g6dq1IS4dNPQLkOejQHACHVo1RiJ7O7VcLEXyZGjWvqdaqslGAQpQgAIUoAAFKEABClDgdxQw5QDrdxyvX73m33YGlsWb10i2chU0P58K9quQ3J8CkS0wZexgVCpbQtVHGjFhBnYHUTMssvvA41OAAhSgAAUoQAEKUIACFDAWAQZYxjIShumHSTyFMLwUwS0htL53D/Z798Ls59Puwnt87kcBQwpIoW0pdC0F6J2DedKdIfvDc1GAAhSgAAUoQAEKUIACFIhKAQZYUalv+HP/XjOwtFrYXL8Ou337DC/NM1KAAhSgAAUoQAEKUIACFKAABSgQYQIMsCKM0iQO9FvNwIp76jQSnDppEgPDTlKAAhSgAAUoQAEKUIACFKAABSgQvAADrN/r7vg9irh7ecHu0N+Ic/0GNF5ev9cI82opQAEKUIACFKAABShAAQpQgALRUIABVjQc1BAuKdoHWC4FCyD+sWOIe+nS7zWyvFoKUIACFKAABShAAQpQgAIUoEA0FmCAFY0HN4hLi941sEqUhNXrl7B+9Pj3GlVeLQUoQAEKUIACFKAABShAAQpQIJoLMMCK5gMc4PKidYDlbW0NM3d3QKv9vUaVV0sBClCAAhSgAAUoQAEKUIACFIjmAgywovkABwqwilXROju7/F5XzaulAAUoQAEKUIACFKAABShAAQpQgAIUMBmBaD0Dy2RGgR2lAAUoQAEKUIACFKAABShAAQpQgAIUCFaAARZvDgpQgAIUoAAFKEABClCAAhSgAAUoQAGjFojWTyE0anl2jgIUoAAFKEABClCAAhSgAAUoQAEKUCBUApyBFSombkQBClCAAhSgAAUoQAEKUIACFKAABSgQVQIMsKJKnuelAAUoQAEKUIACFKAABShAAQpQgAIUCJUAlxCGiokbUYACFKAABShAAQpQgAIUoAAFKEABCkSVAGdgRZU8z0sBClCAAhSgAAUoQAEKUIACFKAABSgQKgHOwAoVEzeiAAUoQAEKUIACFKAABShAAQpQgAIUiCoBzsCKKnmelwIUoAAFKEABClCAAhSgAAUoQAEKUCBUAgywQsXEjShAAQpQgAIUoAAFKEABClCAAhSgAAWiSoBLCKNKnuelAAUoQAEKUIACFKAABShAAQpQgAIUCJUAA6xQMXEjClCAAhSgAAUoQAEKUIACFKAABShAgagS4BLCqJLneSlAAQpQgAIUoAAFKEABClCAAhSgAAVCJaA5dOyU9sePH6HamBtRgAIUoAAFKEABClCAAhSgAAUoQAEKUMDQAhoXV1etVqs19Hl5PgpQgAIUoAAFKEABClCAAhSgAAUoQAEKhEpA4+ziwvQqVFTciAIUoAAFKEABClCAAhSgAAUoQAEKUCAqBDgDKyrUeU4KUIACFKAABShAAQpQgAIUoAAFKECBUAswwAo1FTekAAUoQAEKUIACFKAABShAAQpQgAIUiAoBBlhRoc5zUoACFKAABShAAQpQgAIUoAAFKEABCoRagAFWqKm4IQUoQAEKUIACFKAABShAAQpQgAIUoEBUCLCIe1So85wUoAAFKEABClCAAhSgAAUoQAEKUIACoRbgDKxQU3FDClCAAhSgAAUoQAEKUIACFKAABShAgagQ4AysqFDnOSlAAQpQgAIUoAAFKEABClCAAhSgAAVCLaBxcXHRakO9OTekAAUoQAEKUIACFKAABShAAQpQgAIUoIBhBTgDy7DePBsFKEABClCAAhSgAAUoQAEKUIACFKBAGAVYAyuMYNycAhSgAAUoQAEKUIACFKAABShAAQpQwLACDLAM682zUYACFKAABShAAQpQgAIUoAAFKEABCoRRgAFWGMG4OQUoQAEKUIACFKAABShAAQpQgAIUoIBhBVgDy7DePBsFKEABClCAAhSgAAUoQAEKUIACFKBAGAU4AyuMYNycAhSgAAUoQAEKUIACFKAABShAAQpQwLACmi/OzlqNRmPYs/JsFKAABShAAQpQgAIUoAAFKEABClCAAhQIpQCXEIYSiptRgAIUoAAFKEABClCAAhSgAAUoQAEKRI0AlxBGjTvPSgEKUIACFKAABShAAQpQgAIUoAAFKBBKAY2rm5vW29s7lJtzMwpQgAIUoAAFKEABClCAAhSgAAUoQAEKGFaASwgN682zUYACFKAABShAAQpQgAIUoAAFKEABCoRRQOPq6qr11mrDuBs3pwAFKEABClCAAhSgAAUoQAEKUIACFKCAYQRYA8swzjwLBShAAQpQgAIUoAAFKEABClCAAhSgQDgFGGCFE467UYACFKAABShAAQpQgAIUoAAFKPCfwKMP7ph04hU+uHuSxcgEMiSwRO9iyZHExsLIehb67jDACr0Vt6QABShAAQpQgAIUoAAFKEABClAgCIFnn74h56xrYIEi4709cieLjZPtcxhvB/X0jEXcTXbo2HEKUIACFKAABShAAQpQgAIUoIBxCOy88wHNtzwwjs6wF0EKaAB8GVnYZHU4A8tkh44dpwAFKEABClCAAhSgAAUoQAEKGIcAAyzjGAd9vXA25QDL2cWFM/z0jTB/TgEKUIACFKAABShAAQpQgAIUoECwAgywTOPmMOkAy8XVVavVMsMyjVuNvaQABShAAQpQgAIUoAAFKEABChifAAMs4xuToHpk0gEWZ2CZxk3GXlKAAhSgAAUoQAEKUIACFKAABYxVgAGWsY6M/36ZdIDFGVimcZOxlxSgAAUoQAEKUIACFKAABShAAWMVYIBlrCPDAMs0Roa9pAAFKEABClCAAhSgAAUoQAEKUCDSBRhgRTpxhJyAM7AihJEHoQAFKEABClCAAhSgAAUoQAEKUMAUBRhgmcaomXSAxRpYpnGTsZcUoAAFKEABClCAAhSgAAUoQAFjFWCAZawj479fJh1gsQaWadxk7CUFKEABClCAAhSgAAUoQAEKUMBYBRhgGevIRKMA64uzs1aj0ZiGNHtJAQpQgAIUoAAFKEABClCAAhSggNEJMMAyuiEJskOcgWUa48ReUoACFKAABShAAQpQgAIUoAAFKBAJAlEVYFnHNEeyuLEg03IcXb/D+ZtnJFxd9DkkA6zoM5a8EgpQgAIUoAAFKEABClCAAhSgAAXCKGDoAMvcTIOexVJjTMX0sIpppnqr1QKrrrxFn9338fHrjzBeQcRsbhnDDDHNNfD01sL9h3fEHDQCj2LSAZarm5vW29v4UCNwfHgoClCAAhSgAAUoQAEKUIACFKAABSJRwJABVjLbWNjSPCcKprKFBFkB2+svHii/+CruOrpG4hUHfej5tbKgab4kOHjvA+qvuWnw8+s7oUkHWHwKob7h5c8pQAEKUIACFKAABShAAQpQgAIUCEnAkAHWrBqZ0b1YKjXjasN1B2y45gAnl++oms0eQ8qkhWRaZ599RtG5lww+aMvqZ0PrAsmw9+57VFt+zeDn13dCkw6w3NzctF6cgaVvjPlzClCAAhSgAAUoQAEKUIACFKAABYIRMFSAlTu5La72Kqh6seD8K3Te9q+/HvUqnhqTq2aE+w8vxBt6HN5aoF6OJPgzaWycefwZNx1cMKFKJiSziYmKS30CptgWMdC2YDLUyJYIH79+x7qrDthz951aBqhrMtMrR1IbDCqTBn/Yx8Z3Ly1OPfmEmaee48Xnb2qzwWXSol7OxMiVzAYP331V4drhBx9x5ukn9fNYMczQJHdS1M2RGNBosf6aI7bcdITHDy+D3VcmHWC5uLpqtRJbslGAAhSgAAUoQAEKUIACFKAABShAgXAIGCrAGlo2LcZUzKB6WGTOJZx//tlfby3MzfBnkjjqe3ccXeHh6Y0NTXOgYa7EWHvFASXSx0PKeJaQZYYpxpxSodTuVrmQOoGl73EkIrn00hnVV1yDo8t39f2FdbKgbcHkasmik+t3WFuYI46FOT59/YHaq27ixOOP+DK2FGwtY/jrT/99DzHl+DNkSxIHO1rkRAZ7a1VwXteuvHRGyYVX4OphmOLzDLDCcXNzFwpQgAIUoAAFKEABClCAAhSgAAWih4ChAqz1TbKjUe4kCi312NO+s59CUtQFWN5arQquDtz7gOef3LHw/Cvc7VcEiW0ssPTia0w+8RzZEsfGxCoZkdneGkMOPMb4o08Qw0wDx5ElENcyBtpv/RerLr+BfRwLvB1eXJ12/tmX6LLjHpLbWmJa9UxokCsxjj78iJab7uCTuye+//DC3ra5UT5TQrXcceKxZ0hiY4Gp1TIhe9I42HX7HWqvuq5mi0V2M+kAi0XcI/v24PEpQAEKUIACFKAABShAAQpQgALRW8BQAdae1rlRNaudwkwy8iQcXX1mSIU2wMo48RyefPiqNi+bMSEOd8gDFw8vJB9zGtD6POCuUZ5kWFTnD3z55qmWIeqaRgPENDNTs7DSJrDCnX6F1Y+23HRC/dU31NdB1cDKm8IWl3v6LHvMPf0CHv88f6NcSbGoXhb1/QwTzuDxB3d9l/LLPzfpAItF3H95/HkAClCAAhSgAAUoQAEKUIACFKDAby1gqABrerXM6FUilbLONuUc7jq6BXIfUS49YphrsPm6A245uPouITz99DOKz/uvsHubgimwtF4WyMwsV4//6tIPx3kAACAASURBVFBJQBXbwlwdN8GwE/jk/gOl0idAn5KpkTq+JeJZxYCdtQUsY5qFKsCSpYdL6mVV20pYpivj5Pc8+WZexJVXzpF+D5l0gMUaWJF+f/AEFKAABShAAQpQgAIUoAAFKECBaC1gqACrXo7E2Nw8h7LstvMB5p557s+1ShZ77G2TCz+8tUg68hQ+fP3uG2BtvuGIBmtu+m7fMFcSbGiaHW7fvTD0wOMgx2fFpdewtYyJW30LqVBrx00nnHz6GddfO+NYp7yQmltbbjii/s/jBjUDS4q2b/nZ5zFHnuKj249A59p8wwFvnD0i/R5hgBXpxDwBBShAAQpQgAIUoAAFKEABClCAAsYqYKgAS67/nx4FkT+lLby0WlRbdh3HH3+EtzdUcfZ7A4qomlX3333FH5POKi5dDayN1x3RaO1/AdZfaeLhTNf8aptME87h4Qef2VyZ7KzRLF8yfHb3xLSTzzCsbDqMrpgeN9+6Iue082obm1gx4DyulPo6qCWExx9/QtmFl1VdqwwJrXFvYBGYazQoteAyTjz2eSphsriW6FQ4BaRo/NQTz+BsgELuph1gubjwGYTG+g7AflGAAhSgAAUoQAEKUIACFKAABUxAwJABVuHUEjzlg5lGo54y+OqLB75+90KKuLEQ3zqmCoRqrLiOPXffhRhgyeypw+1zo3j6BHjy0R1bbzgiURwLlM2UUB2r756HKsBqmS8ZVjTMppb/dd1+T9Xdapw7MZrnS6aOv/2WE+qs8qmBNalKRvQvlQbfPb1x4cUXzD//CpuuOWBatczoXSIVXn3+hu233iGGGVA1qz1SxbfE2itv0WLjbRZx13Ofa1gDywTeCdhFClCAAhSgAAUoQAEKUIACFKCAEQsYMsAShvQJrbGobhYUSh3Xt16VBFf33rlh1KEn2HTdwVcruBlYsoHMpJLj1MqeCJaSKgFw/uaJnbffofP2f9XywhhmZqrYe8n08X2PefbZZ3XeXMls1BMHyy66on5WJHU8bGyWHSniWUIDoP++h5hy/BkSWsfEpKqZUD9nYtjE8qmvJaHb9tvv0GLDHXj/LCAf2UNs0jOw+BTCyL49eHwKUIACFKAABShAAQpQgAIUoED0FjB0gKXTlELoeVLYIpltLFx49gWOruGrIxXT3Az5U9hCUqcbb1xUcBWwZbCLjayJrHHhhTOc9JwnvlVMWFuY47Xzd9+nG6rjaTTIndQGca1i4PIrF7h6BK6HFZl3ikkHWCziHpm3Bo9NAQpQgAIUoAAFKEABClCAAhSI/gJRFWBFf9mIvUIGWBHryaNRgAIUoAAFKEABClCAAhSgAAUoYEICDLBMY7AYYJnGOLGXFKAABShAAQpQgAIUoAAFKEABCkSCAAOsSECNhEMywIoEVB6SAhSgAAUoQAEKUIACFKAABShAAdMQYIBlGuNk0gEWn0JoGjcZe0kBClCAAhSgAAUoQAEKUIACFDBWAQZYxjoy/vtl0gEWn0JoGjcZe0kBClCAAhSgAAUoQAEKUIACFDBWAQZYxjoy0SjA4gws07jJ2EsKUIACFKAABShAAQpQgAIUoICxCjDAMtaRiUYBFmdgmcZNxl5SgAIUoAAFKEABClCAAhSgAAWMVYABlrGOTDQKsDgDyzRuMvaSAhSgAAUoQAEKUIACFKAABShgrAIMsIx1ZKJRgOXq6qr11mpNQ5q9pAAFKEABClCAAhSgAAUoQAEKUMDoBBhgGd2QBOqQBsCXkYWNv6PB9FDj4uqq1TLAMtkBZMcpQAEKUIACFKAABShAAQpQgAJRLXDv3VcUnHcDnB4T1SMR/Pmz2FvhYpdcxttBPT1jgGWyQ8eOU4ACFKAABShAAQpQgAIUoAAFjEfgpoMb2m97CAe3H8bTKfZECeRIbI05NTIgdbxYJiuiYRF3kx07dpwCFKAABShAAQpQgAIUoAAFKEABCvwWAhoWcf8txpkXSQEKUIACFKAABShAAQpQgAIUoAAFTFaASwhNdujYcQpQgAIUoAAFKEABClCAAhSgAAUo8HsIMMD6PcaZV0kBClCAAhSgAAUoQAEKUIACFKAABUxWQOPi4sJnEJrs8LHjFKAABShAAQpQgAIUoAAFKEABClAg+guwBlb0H2NeIQUoQAEKUIACFKAABShAAQpQgAIUMGkBLiE06eFj5ylAAQpQgAIUoAAFKEABClCAAhSgQPQXYIAV/ceYV0gBClCAAhSgAAUoQAEKUIACFKAABUxagAGWSQ8fO08BClCAAhSgAAUoQAEKUIACFKAABaK/AAOs6D/GvEIKUIACFKAABShAAQpQgAIUoAAFKGDSAnwKoUkPHztPAQpQgAIUoAAFKEABClCAAhSgAAWivwCfQhj9x5hXSAEKUIACFKAABShAAQpQgAIUoAAFTFqASwhNevjYeQpQgAIUoAAFKEABClCAAhSgAAUoEP0FOAMr+o8xr5ACFKAABShAAQpQgAIUoAAFKEABCpi0gMbVzU3r7e1t0hfBzlOAAhSgAAUoQAEKUIACFKAABShAAQpEXwHOwIq+Y8srowAFKEABClCAAhSgAAUoQAEKUIAC0UKANbCixTDyIihAAQpQgAIUoAAFKEABClCAAhSgQPQVYIAVfceWV0YBClCAAhSgAAUoQAEKUIACFKAABaKFAAOsaDGMvAgKUIACFKAABShAAQpQgAIUoAAFKBB9BRhgRd+x5ZVRgAIUoAAFKEABClCAAhSgAAUoQIFoIcAi7tFiGHkRFKAABShAAQpQgAIUoAAFKEABClAg+gowwIq+Y8srowAFKEABClCAAhSgAAUoQAEKUIAC0UKASwijxTDyIihAAQpQgAIUoAAFKEABClCAAhSgQPQVMPkZWFqtNvqODq+MAhSgAAUoQAEKUIACFKAABShAAQpEkIBGo4mgIxn+MCYbYHl5eeGbhwfMYsQwvBrPSAEKUIACFKAABShAAQpQgAIUoAAFTEzA8/sPWFnGgrm5OUwtzDLJJYQy68rD4zteOjgge+ZMJna7sLsUoAAFKEABClCAAhSgAAUoQAEKUMDwAldu3UHKZElhE9uaAZYh+CXA+ur+DU9evET+nNkNcUqegwIUoAAFKEABClCAAhSgAAUoQAEKmLTA6X8uI0Oa1Ihna8MAyxAjyQDLEMo8BwUoQAEKUIACFKAABShAAQpQgALRSYABloFHkwGWgcF5OgpQgAIUoAAFKEABClCAAhSgAAVMXsCkAyxnZ2ctTKwKPQMsk3/N8AIoQAEKUIACFKAABShAAQpQgAIUMLCAaQdYLi5aA3v98ukYYP0yIQ9AAQpQgAIUoAAFKEABClCAAhSgwG8mwADLwAPOAMvA4DwdBShAAQpQgAIUoAAFKEABClCAAiYvYNIB1hdnZ62GSwhN/ibkBVCAAhSgAAUoQAEKUIACFKAABShAgZAETDrAcnVz03p7e5vUCHMGlkkNFztLAQpQgAIUoAAFKEABClCAAhSggBEImHSA5eLqqpVAyJQaAyxTGi32lQIUoAAFKEABClCAAhSgAAUoQAFjEDDpAMuZRdyN4R5iHyhAAQpQgAIUoAAFKEABClCAAhSgQKQKmHSAxRlYkXpv8OAUoAAFKEABClCAAhSgAAUoQAEKUMAoBBhgGXgYuITQwOA8HQUoQAEKUIACFKAABShAAQpQgAImL8AAy8BDyADLwOA8HQUoQAEKUIACFKAABShAAQpQgAImL2DSARZrYJn8/ccLoAAFKEABClCAAhSgAAUoQAEKUIACegUYYOklitgNOAMrYj15NApQgAIUoAAFKEABClCAAhSgAAWiv4BJB1gs4h79b1BeIQUoQAEKUIACFKAABShAAQpQgAIUMOkAi0sIeQNTgAIUoAAFKEABClCAAhSgAAUoQIHoL2DSAZaLi4tWa2JjxCWEJjZg7C4FKEABClCAAhSgAAUoQAEKUIACUS5g0gEWZ2BF+f3DDlCAAhSgAAUoQAEKUIACFKAABShAgUgXMOkAizWwIv3+4AkoQAEKUIACFKAABShAAQpQgAIUoECUCzDAMvAQcAmhgcF5OgpQgAIUoAAFKEABClCAAhSgAAVMXoABloGHkAGWgcF5OgpQgAIUoAAFKEABClCAAhSgAAVMXsCkAyzWwDL5+48XQAEKUIACFKAABShAAQpQgAIUoAAF9AqYdIDFGlh6x5cbUIACFKAABShAAQpQgAIUoAAFKEABkxcw6QCLM7BM/v7jBVCAAhSgAAUoQAEKUIACFKAABShAAb0CDLD0EkXsBqyBFbGePBoFKEABClCAAhSgAAUoQAEKUIAC0V/ApAMsLiGM/jcor5ACFKAABShAAQpQgAIUoAAFKEABCph0gOXq5qb19vY2qVHkDCyTGi52lgIUoAAFKEABClCAAhSgAAUoQAEjEDDpAIs1sIzgDmIXKEABClCAAhSgAAUoQAEKUIACFKBAJAuYdIDl6uqq9dZqI5koYg/PGVgR68mjUYACFKAABShAAQpQgAIUoAAFKBD9BUw6wGINrOh/g/IKKUABClCAAhSgAAUoQAEKUIACFKAAAywD3wOcgWVgcJ6OAhSgAAUoQAEKUIACFKAABShAAZMXYIBl4CFkgGVgcJ6OAqEUkAdCvHVwxFsHJ3z+4ozv378jfrx4iB/fFqlTpoSVlaXvka7duKW2k1a5QplQnoGbUYACFKAABShAAQpQgAIUoEB4BUw6wGIRd/3DvmnzVuzYuTvIDa2trZEnT278VaQQ/sicCVZWVvoPGMIWAwcPw7Nnz9UW/fr0Qt68ufUeb/+Bv7F6zTq1XfFif6Fzpw7q6/ETp+DmzVvq6z69eyB/vrx6jxVwg/D0J8wn0bPD8BFj8eDhA7VVj+5dUbhQgYg+BY/3iwISKr9+8xZLVqzDw8dPgz1ao3o1UaZkMVhbW2HW/KW4eOmq2nb9ivm/2APuTgEKUIACFKAABShAAQpQgAL6BEw6wGINLH3DC0yeOgOz5uj/gJ0xQwZMnTwO+fLm0X/QYLaoWLkmbt25o366YulClC+nf2bKkqUrMHLMeLVP3To1MWv6FPV1k+atceLkafX1ssXzULFC+TD3Kzz9CfNJ9OxQo1YDXL7qE3QsnDcL1apWjuhT8Hi/IPDjxw8sXr4W/1y+hh+ennqPlDBBfAzp3wObtu1mgKVXixtQgAIUoAAFKEABClCAAhSIOAGTDrA4A0v/jRAwwEqdKiU0Gg1k1skXZ2d8/vzF9yDp0qbBiaMHYW5urv/AQWwRnsAouABrxKixuHrthjrLkIH9UCgcM5fC059wXXgIOzHAimjRiDueLBFcsHS1bxCVOJEdypYqjqxZMiFpksSwjBUL795/wPMXr3D2wiVcu3FbLSu0sIiplhY6Or1TneEMrIgbEx6JAhSgAAUoQAEKUIACFKBAcAImHWBxBpb+GztggPXw3xuQpYO6tnnLNvTpPxhS/0fasMED0LFDW/0HDmOApQWgCWKf4AKs0HZA+m1mZhbk5sEFWBLeSYgX2hbSOQIeI+CxfzXA8vbWwsws9H0N7TUF3C4s16jvHGH11Xc83c/luNLCMnYhHXvpyvU4dvKM2iRfnhzo3a1jiF05dfY8Vq7djG/fPPxtxwArtCPI7ShAAQpQgAIUoAAFKEABCoRfwKQDLM7A0j/w+gIsCS5q1WuMy5evqIMVyJcXO7ZtxL37D3D48FH1vfTp0qJy5Yr+TrZ8xWq4ubmp7zVv1gRx49oiYGCUN09uVd/q3IWLsLS0QqUK5dC4UX1/xwkuwNq9ex+ev3ihtq1SuSLSpUvru9/DR4+xcMkyPHn8FB4eHogXzxalS5ZUx/YbzgXsj9TRWrtuAw4fPQZZClakSGG0a9MqSEQ57rr1G3Hu/EW8eeuAVClTokWzxihcuGCQ20uoMXnqdFy6fBU2tnFQrnRpNGvaCHXqNQnzEsLbt+9i9dr1uP/gIWSJW4IE8VCmVCk0aFAX1n7qlO3Zu9+35ljZsqWR5Y/Mvn2T2UGbN29V/x07tjVat2qhQsp58xep78WKFQvt27XGp0+fMHvOAly8dBlVKlXwDTKTJUuKOrVr+rvWQ0eO4f69++p7xYoVRa6c2X1/fv/+A+w/+Lfy8vD4hmxZs6Jbl06Q4+ja4iXL1XhJa1C/LhIlsvf9mbv7NyxdtkL9twRUHdq3QcyYMdX1Hzh4CDt374GTmvGkUWPRtHEDFClSSP8LIJgtZOZh937D4OnpiVw5sqJnl/awsLAIcus7/95XSwalvXv3Qc1c9NsYYIV7GLgjBShAAQpQgAIUoAAFKECBUAuYdIDFGVj6x1lfgCVH6N13ADZt2a4OliJ5Ulw8dwpbtu1Az9791fcqViiHZYv919HKnf8vODn5PIXt3OljkKWJfgOj/n17Yvv2XXj05L+i2DLpqVSJEpg2dQIS2fuEF2GtgTVtxmzMmDVXLYEM2JIlTYrlSxcg+5/ZfPrtpybXxHGjsHDxMjx77hOK6ZqEbCuWLUTCBAl8vyfB0OBhI/Hx4yd/20rA0bVzB3Tu1B5Wlv89ke7qteto16ErHBwd/W1fqkQxODm9x51//1Xf11cDS8KdadNnq3DOy8sr0PWlTp0KC+bORM4cPsFRi9btceTocfX1zGmTUK9ubd99bty4icrV66j/tre3x/XL51RYkzp9FvW9uHHj4sDeHWjQuDlevnylvte7ZzdfWylUfuWfs7C1sVE/k6VzufMVwecvX1TQc+n8KdjZJYTb169YsWI15sxfCFdXn0BT12S72TOm+Nb9qlazru+y0FnTJ6NunVq+2167fgNVa9RV/502TRqcOXkYr169RpfuvXH5ik8NMb9NQq5KFcpj6uTxKjwNS5Mgb/jYyXjy9AXs7RJi1pQxIe4uxdqlaLtvCzCdkAFWWPS5LQUoQAEKUIACFKAABShAgfAJMMAKn1u495Lg5av7Nzx58RL5/cxgCfcB9eyoL8BydnZBoaIl8OWLizpSvTq1MHP65F8OsORYceLEVmGEq6uresqbhCDSJAQaNKCv+josAda3b9+QOWsueHp5qRBFljtKeHHg4N84fPSECmikftf9O9dhZWXpL8CSc9nY2KjtpR/v33/wnW00b/Z01KxRTfXn7LnzqN+oufpaQpyUKVPA3s4Ot+/c9a0X1q9PT/Ts3kVtI30q+FcpvH//Xv13XFtbZP4jM96/f4fXr97A4+c1y8/0BVgXLvyDOg2aqOPY29th8IC+Kqjbs/cAjp88pb6fO3dO7N3pM7PqVwKs2NbWqq9vHByUmXhKODZl+kzcueMTuM2ZORW1a9VQX/977z7KVqiqvs6a5Q8cPrjHZ/z+P2tq5GifIvy2cu0Z0+PHD088ePgIX93d1fcl/JQQdPaceZg0dab6XumSxbFm1TL1tTSZnTVq7AT1dcN6dTBt6kR07d4bO3b5nKd40SJo2qQRnj59ig2btvoGkZPGj0HTJg19jxOaLxzfvUev/sPVptWrVEDDuj7XGFyT2lfLV28I9udzpo0LzWm5DQUoQAEKUIACFKAABShAAQr8ggADrF/AC8+uUR1g9enVXS3NgrcWr968wZlz532XoUmIcfzIAaRJnSpCAqy/9+9Ctqw+M372H/gb7Tt1U1/HsrDAkb/3qmWBYQmwNm3eit79Bqlj5M6ZE3t3+wQ50jp164kbN26pr1cuXYhMmTL6C7DMzc1w+vhhFUjJsrS2Hbrg2PGTavuG9eti2hSf8KRi1Zq4dcvnSYrbNq9DwQL51ZK2tw6OqFy1JpzevVdB2IUzxxEvXlxMmzEL02fOVdv/mS0rVq9cgsSJEqkZVHLNHbv08O2jvgBrxao1GDp8tNpelk0uXjBHff39xw9UqVYLbl/d1XLAwwd8Qp1fCbB0nWpQrzZatWyuwkaZqSXGw0eO/dmHCli8wOfaNm3Zht59B6qvWzVvirFjRqiQqkr1Ovj69atavrhuzXJ17dKOHT+BZi3bqa8LFyqIrZvWqpAvb8FiKmiMESMGLp47iSSJfbavWKUWbt2+rb7es2ML8uTJhcrVauPGTZ8x3bR+NYr+VVh9LUtI5dqlFSqQD9OnTvI1Ds0X9x48wugJ09Wmo4f1R4Z0aUKzG7ehAAUoQAEKUIACFKAABShAgSgUMOkAizWw9N85AWdgBbeHhDRSs2nC2FFqk19dQtjk//WoJk/0PzOldr3GuPjPJXV83aynsARYfmdHyTEa1KuD4sX+wh+ZMyF9+nQ+wZyf5ncJYctmTTBu7Ejfn0qNqUFDRqj/LlGsKNavXaHqM2WSGV6enkiTOrUKZPyWT5cliLKftOFDB6JDuzao36gZzp678POaZqBmDZ9ZStLkeHkLFsWnT5/Vf+sLsLbv3I1uPfr8j737AK+qaNc+fgcSepWq9CZFIHQERUAUFTsWVCwoqLyAIipVkF4E6cUGFkRRBAUFRVFEBWkivXfpnXRCQnLOTMg2gUAAk5094b++67uulLXXzPxmOPLezDzL3ps1a1Y9+nBz3Vi3th1fuXJlzyte/l8DrOvLldHcObNsPaz4y+w0u6NZ3I6k+KN85uunn31ev8xfYH8+Z9Z0VasWqNFjJ8isL3N1eb2THrjv37GbkNCEgaa2lXn+lg2rbGjV/qVOmvnt7ESG27ZtV8MmcTXWqlaupB/mzLJfP9yipRYvWWa/NnWvHmvxsKoHVrXhZOHChTx9vtwvVqxcreFj4mqBffjuSPu2QS4EEEAAAQQQQAABBBBAAAHfFnA6wKIGVvKL69wAK5MJec6+gc+EVpkzZ1KWzFn0RvfOiWoS/dcAy+xeurFunUQdfGvYCI0Z94792cvt26prl9cuaweW+VzzRx63hdLj35oY30De3LnV+rln1Pq5VsqVK65uU8IAa/SIYXr4oX+Lkv/44zw990I7e58p7j5zxhdatGixHn0i7vhgctfTJuwb2M8eqzPH68w159sZqhZYNdFHn239okzxc3MlF2CZgup3NHtABw4ePG98OXLk0KsdO9hC9WYHmLn+a4D12eQP1ahhg0T9NeFd5cDaCgkNtYHZiqUL7XHMGwJr2z5dX66s3aVnrhfbddTsOd8nR2V/v3jhfBtCmV1vT7WKe8vlTfXradrUyRo2fKRGjYmrsZbwSOCCBb/rxfYvn1dby9xX5YZK6t+vt/UOCPC/pD7E37Tsr5UaNf4D++2USeMu+BbLiz3UfN48x7wB0zyDCwEEEEAAAQQQQAABBBBAIHUFnA6wgoKDY83/yHbpSusjhN9/97WynC1AnjFDBuXImcPWLkr4djvjmVyAFVjzRltHylxJFXGfO3umqlSJK6Yef40aM07Dho+237Zp3Up933zjsgOskJAQG2B98eVXmr/gN7vDJ+FVuFAhzfpmmooWue68tyI2vb2J59af5v2iZ9u0td/HB1imeHv8kT9TFyreKan1dUfT22yNqFub3i3zBj5zJTXmtu1e1ndz4gKf5AIsc48phL5w0Z/2yJ4p0H5uUGeOZM6dM9MGJxcLsJYv/0sPPPy4bTepIu7m5yuX/5noTYDx4zRvmOzVJ66w+ZNPPGaLxnfu9ob9/o3uXdSubdzRwFatX9S8s+GcsTJmF7o+/OAdewTQFMavUj0u2MybN4/WrVquBx9+TMuWx70F87f5P6psmdKex5hC7sbv65mztGHDpkSPN3/2277QRj17xL1s4FIv81bBgUPj1uHwwb117RXs5jKfN88pW6aU+vXsfKlNcx8CCCCAAAIIIIAAAggggMAVCjgdYLEDK/lZT66I+4WeYIpnmyLa5mrc8BZNmfxvwe2YmFhdX7GqIk7FhUdJBVi93uimti+0TvT4/7XvqG9nx+3YGTq4v1o+8dhlBVimOLgU9wo4s+vGFFA39armL1igyZ9OtW/IM5cpQm+K0SfcgfXRxHeVXIB15OhR+6Y9EzKWL19O839KfnfRQ4+21JKlccfcPp70nm6/7VbPmE34dHPD27X7n7g3HyYXYJndT/FvVzTH7cwxvBV/r7Qh0cQPP/G8mfDTjyfq1sYN1eaFdvrhx3n22f16v2F3n8Vfn0+d5gmdLhRgbVq/Ujlz5DhvCZjC84HV69pdWKZemQn4TK00c33/7dcKPPvygb79B+v9iR/an5u3AT7e4pHkF6Sk1zp31xfT4uqXTRg7Ut3e6K3g4GBbR+unH7717Ig6d76PHDlijxTO+Hqmfj57nNHUbVu7cpmt4XWp1559+9W1Z1ydr5YtmuvuO2+71I967uvwag8dP3FS9997h1o0v3gR+Mt+OB9AAAEEEEAAAQQQQAABBBA4T4AAy8uLIq13YG3duFrZsmVLdtSm3pGpe2QuU3/JFF33z5jRBixTv/jKE46Y3ycVYJkdOav+WqycOeMCkn379qteg1ttCGN2zphC3eaNepdTA+v+B1vor7//tp9fuXyxChTI5xlHp9e6aNr0b+z3/fr0VOtnn7nsAMt8NrBmPc8bBU2hdlP03Vxm3PPm/aIx49+xdbE6v/6qrb/V/Y03NXlK3BvqTED23oQx9o1+5jI7hm6/K+7thuZKLsBq82I7/TA3LpD6buZXqlG9muezCY8iDh0yQC0fb6EePXvrk0/janLdf+/dmjAu7g1/Jvi6tWkz7dixy35/uQGW+Yw5qrl02V/288bbjN/Ustq4doWnZtac7+fqxXYv2981vOVmffLh+546ZCaMe7NPf61Zu065cubU51M+9ozF7KKrUr2u7afZtRW/JqZ/aY6d1vbcV7laHZljleaerRvX2OOu5jpzJkYVq1RXWFj42WOOf6hQoUuviWXaa9P+NUVGnlbpUiXUv1eX8+qLeTqRxBffz5uvKZ9Pt0Hb++OGnbd78WKf5XcIIIAAAggggAACCCCAAAJXJuB0gBUaFhZ77hGrK2Pw3qdcCbDWrdugO+6O21li/oe62YXTuGED++a5OT/8aAuUx19JBVjm7ehkXAAAIABJREFUd+ZNgY88/IBCQsP06WdfaO/evfYjJuiZ+N54G0xcToD1w9wf1ebFDvYZJUsW1wfvjre7djZs3KTn2vxPe/fts78zQUi9G+tcUYA1dNgIjT5bp6t0qZK2sH2hgoVkCqwvWbJUoWFhtg6U2SlkisYfOnxY9W6+1eNRt3ZtW2x8//79mvrldE+fTL+SC7CmfvmVXu/Sw46herVAW+i+ePFiWrJ0uZ5u1UbhERG2EPqGtSuUPVs2ffb5l+rSvae93wSG999zt4oXL6o/lyyTKXgff11JgGVqlZmaZQkv8wbLV1+Je5OkuUwQ9HzbDvrxp59tAFSvbh099NADCg4OsbWxVvy9yt53/3332J1WCS/z9sJVq9d4flS8WFEtXvhronvub/6o/lqx0v6s7Yut1enlDjZ8HTP2HQ0bERfWVShfTr9cwk65RA+WtHnrNvUdNML2+8F779LDD/5bgP7cexN+v3ffAfXoM9gW+q9U4Xr17PrKxW7ndwgggAACCCCAAAIIIIAAAikk4HSAxVsIk18FV3qE0PwP9BZPPG3Dk3OvwKqVdezYce3dt9/+KqkA69GHH9RXM2Z6jsTFPyN//vz6YspHqlixgv3R5QRYJqxs80J7/TjvZ0+XTKBj+mouE0Y80vwBDRrYzxYev9wjhOYZERERerVzN337XdLHB02B+M8+maQaNap7+vDltBk2SIrvR/wvTMhUrVpVz1sKkwuwTH0os6Ppz8VxbzU0V8Lxme+ffeYpDej3pv2dqQ/VtNl9CgoKTjRFJhh8qX1bWzDfmF1JgLVv/37Vb9DEMybzVsRVf/0pU0w+4bVjx069/MrrWpkgjEr4+zq1a9ngrlChgok+N2LkGA0fNdbzs4ebP6DRI4clumfx4qVq//KrNiQ0lwlSzRFSc4Q13ubjie+qceOG5y7RS/p+0LDRWrchrgD/0088ottvveWidbx27vpHEz74WPv2H7Tr67WX29oQiwsBBBBAAAEEEEAAAQQQQCD1BZwOsNiBlfwCeff9Sfro4089Ny74Za79H9+Xer3WpYd+XfCbPW6VJUtm3X5rIw0ZPEAtn35O27btsI/5+qvPVaTIdXq61fPavGWr/dn8n7/XpEmfaOqX0xQaFq4MGfxUsXx5W0vLhDLxlzmOOGrMePtts7uaqnevuB1IHTt19oRnbw3pr0a3xL0tzwQyJjAaNXa8LeB+5ky0/DP6K981edWhfVs1f/DfekQJ+zPsrYH2yF/89fsfi9S5a1xhchPIvf9u4jfJmeNxI0aNtUFdVHS0MmUKUIOb6tk3D2bPfn69pU2bNul/HTrZwvZ+GfyU/5p86tHtdW3dvkMffzLFtjOwf2/d1qRxsvSfTP5M70+cZHeumV1OZnw5c+VU9y6v6+5mdyT6fFh4uJ548llbZ8sEaOZtjM8//5yefvIJ1bdHNmN0Tb5r9MN3X9vf33TLv/We5s+bk+RY4hto99IrWrEibheVqQk2+aO4N/cldQ17e6S+mTVboaGhilWssmXNZt+Y+OLzzyVZDH/t2nW6854HPY+a/sUU1atX97xHm/Bq6NARWvD7Qp0+fdoGov4B/qpRLVD9+vRS0aJFkvW80A2mYH7XXgN14uRJe4sJozq8+KxMWGdqrJnAzJiZWm9/LFqqaV9/q9Ono2xQ2u75Vrqp3r/HHa+4E3wQAQQQQAABBBBAAAEEEEDgkgScDrAo4n5Jc/yfbzp1KtIGE6aelamDdDmXCWBMzSOzK8js3kmpt0aaYCE8PNwGCiZcMkfLEgZjl9PHC91rwpKwsDCZ8WfLljXZ2mGmplNISKgyZsygnDlzeoqRX0lfzLPCwyNsnSgzPhOaXegtf/ZYani47WeePLkvuovoSvpyqZ+xc20CrJhY63WxtTJm7AS99XbcscIK5a/XvLnfXdTL7IwzQVJsTIwNxMx8p8RaOnL0mAa/PUYHDx2xfTFF642hCXmNtzkqezIo2L4d0lwmxO3Q9jlVq3LDf5rfSzXlPgQQQAABBBBAAAEEEEAAgTgBAiwvrwRv18Dy8vBoDoELChw6dFj3PvCI3eG0Y+dOu5vOXMOGDLS7tdLqOh0VpZnf/aDfFy3R8eNxu7GSumrXrKa7mjZWhevLpVVXaRcBBBBAAAEEEEAAAQQQuGoFnA6wOEJ41a5bBu6gwIEDB1XrxrijoOYyR/TKlC6p2bNmnFdbKy2GZ3aQLf97tVatXqfde/batxwWL1pEZcuWVNMmjXjbYFpMCm0igAACCCCAAAIIIIAAAmcFnA6wKOLOOkbAHQFzDG/02AkKCgpSvnzX2DdbmrdFmh1ZXAgggAACCCCAAAIIIIAAAghcTMDpAIsaWCxuBBBAAAEEEEAAAQQQQAABBBBAIP0LEGB5eY6pgeVlcJpDAAEEEEAAAQQQQAABBBBAAAHnBdwOsEJCYmMdmwICLMcmjO4igAACCCCAAAIIIIAAAggggECaCzgdYFEDK83XDx1AAAEEEEAAAQQQQAABBBBAAAEEUl3A6QCLtxCm+vqgAQQQQAABBBBAAAEEEEAAAQQQQCDNBZwOsCjinubrhw4ggAACCCCAAAIIIIAAAggggAACqS5AgJXqxIkboAaWl8FpDgEEEEAAAQQQQAABBBBAAAEEnBdwO8CiiLvzC5ABIIAAAggggAACCCCAAAIIIIAAAskJuB1ghYbGmh1NLl3swHJptugrAggggAACCCCAAAIIIIAAAgj4goDTARZvIfSFJUQfEEAAAQQQQAABBBBAAAEEEEAAgdQVcDrA4i2Eqbs4eDoCCCCAAAIIIIAAAggggAACCCDgCwJOB1jswPKFJUQfEEAAAQQQQAABBBBAAAEEEEAAgdQVcDrAYgdW6i4Ono4AAggggAACCCCAAAIIIIAAAgj4goDTARY7sHxhCdEHBBBAAAEEEEAAAQQQQAABBBBAIHUFnA6w2IGVuouDpyOAAAIIIIAAAggggAACCCCAAAK+IOB0gBUSGhobGxvrC46X3AfT3/CIU9rxzx7VDqxyyZ/jRgQQQAABBBBAAAEEEEAAAQQQQOBqFSDA8vLME2B5GZzmEEAAAQQQQAABBBBAAAEEEEDAeQGnAyyOEDq//hgAAggggAACCCCAAAIIIIAAAgggkKyA0wEWRdyTnV9uQAABBBBAAAEEEEAAAQQQQAABBJwXcDrAogaW8+uPASCAAAIIIIAAAggggAACCCCAAALJChBgJUuUsjdQAytlPXkaAggggAACCCCAAAIIIIAAAgikfwG3A6yQEMfeQSgRYKX/P1SMEAEEEEAAAQQQQAABBBBAAAEEUlbA6QCLGlgpuxh4GgIIIIAAAggggAACCCCAAAIIIOCLAk4HWLyF0BeXFH1CAAEEEEAAAQQQQAABBBBAAAEEUlbA6QCLIu4puxh4GgIIIIAAAggggAACCCCAAAIIIOCLAgRYXp4VamB5GZzmEEAAAQQQQAABBBBAAAEEEEDAeQECLC9PIQGWl8FpDgEEEEAAAQQQQAABBBBAAAEEnBdwO8DiLYTOL0AGgAACCCCAAAIIIIAAAggggAACCCQn4HSAxVsIk5tefo8AAggggAACCCCAAAIIIIAAAgi4L+B0gEURd/cXICNAAAEEEEAAAQQQQAABBBBAAAEEkhNwOsBiB1Zy08vvEUAAAQQQQAABBBBAAAEEEEAAAfcFnA6wQsPCYmNiYpyaBYq4OzVddBYBBBBAAAEEEEAAAQQQQAABBHxAwOkAix1YPrCC6AICCCCAAAIIIIAAAggggAACCCCQygJOB1jUwErl1cHjEUAAAQQQQAABBBBAAAEEEEAAAR8QIMDy8iRwhNDL4DSHAAIIIIAAAggggAACCCCAAALOCxBgeXkKCbC8DE5zCCCAAAIIIIAAAggggAACCCDgvAABlpenkADLy+A0hwACCCCAAAIIIIAAAggggAACzgs4HWBRxN359ccAEEAAAQQQQAABBBBAAAEEEEAAgWQFnA6wKOKe7PxyAwIIIIAAAggggAACCCCAAAIIIOC8AAGWl6eQI4ReBqc5BBBAAAEEEEAAAQQQQAABBK5A4MyZM8qYMeMVfNLNj/j6eJ0OsDhC6OYfCnqNAAIIIIAAAggggAACCCCAgC8LmDBn5aZNOnMmRrUq36CMGTL4cnf/c9/2HT6szTt36ZaaNeTv7/+fn5caDyDASg3VizyTHVheBqc5BBBAAAEEEEAAAQQQQAABBC5TYOmaNTpw5Kj9VOVyZVW2ePHLfII7t5+KjNS8xYttWJc1S2Y1rFVLWTJn9rkBOB1gUQPL59YTHUIAAQQQQAABBBBAAAEEEEDAWYGo6Git3LhR+w8fsWMonD+/at5QSQE+uisppaDXb9uurbt328flzZ1LtStXVrYsWVLq8SnyHAKsFGG89IewA+vSrbgTAQQQQAABBBBAAAEEEEAAAW8JxB8b3HvwkG2yUL58qlct0FvN23ZMZnDkyFFFRUcpU0AmFSiQ32vtb9yxwx4jNFeuHDl87jghAZbXlkJcQwRYXganOQQQQAABBBBAAAEEEEAAAQQuQSDhscEihQqqesWK8vdyEfcBA4fosy++UlTUaQVWqaIZX31+CT1PmVtiYmLsLqyNO3baB/racUICrJSZ50t+CgHWJVNxIwIIIIAAAggggAACCCCAAAKpLuALxwZ37Nipzt3e0JKly+Xn52c3v1QPrKrZ385I9fGf28CG7du1ZdfZ44S5cql2Fd84Tuh0gMVbCL2+jmkQAQQQQAABBBBAAAEEEEAAgXQj4AvHBg3mZ59/qe4939Q9dzdT0SLXafw776t6tUDNnjU9TazPPU7YoGaNNK8DRoDl5aXADiwvg9McAggggAACCCCAAAIIIIAAAhcQ8IVjg6ZrP8z9SXnz5lbNmjU1dtw7Gj5yTJoGWL54nNDpAIu3EPJ/gxBAAAEEEEAAAQQQQAABBBBA4HIFfOHYYMI+m80u5uiguUaMGns2wKqq2bO8f4QwYb986Tih0wEWRwgv948o9yOAAAIIIIAAAggggAACCCCAwKnISC1YtlynTp+2GJXKllHZ4sWV4WyIlJZCngArjWpgJRz7vsOHtXztOvujAH9/1a9eTXlz5UoTHqcDrNCwsFizrc2liyOELs0WfUUAAQQQQAABBBBAAAEEEEivAlFRUfpjxd8KDguzQ6xQupQqlCqV5sP1lQDrwJEj+mvdep05m7s0rF0rzcIrMylOB1gcIUzzP1d0AAEEEEAAAQQQQAABBBBAAAFnBcIjIrRs3TqdDA6xYyhfqqQqli6dpuPxhQBr76FDNrwyV5bMmVUvsKpy58yZpi5OB1gcIUzTtUPjCCCAAAIIIIAAAggggAACCDgvYI8TLl+uU5FnjxOWKaOyJdLuOGFaB1i+dGww4eJyOsBiB5bz/3eCASCAAAIIIIAAAggggAACCCCQ5gK+dJwwLQMsXzs2SICVhn80qIGVhvg0jQACCCCAAAIIIIAAAggggMAFBHzlOGFaBVi+eGyQACsN/7gSYKUhPk0jgAACCCCAAAIIIIAAAgggcBEBXztO6K3J8tVjg+kmwKIGlreWMu0ggAACCCCAAAIIIIAAAgggcHUIREVH64+/VnjeTljl+nIqU6xYuh28Ce3m/bnY87bBRrVrKU+uXD43XqdrYBFg+dx6okMIIIAAAggggAACCCCAAAIIOC8Qf5wwJiZW9aoFKmvmzM6P6WID2LB9u/45cNAn3jZ4oX46HWBRxD1d//lhcAgggAACCCCAAAIIIIAAAgikmcDpqChlCghIs/a93bCvj9fpAIsdWN5ezrSHAAIIIIAAAggggAACCCCAAAIIeF/A6QArJCQkNtb7Zv+pRYq4/yc+PowAAggggAACCCCAAAIIIIAAAlehgNMBFjuwrsIVy5ARQAABBBBAAAEEEEAAAQQQQOCqE3A6wKIG1lW3XhkwAggggAACCCCAAAIIIIAAAghchQIEWF6edI4Qehmc5hBAAAEEEEAAAQQQQAABBBBAwHkBAiwvTyEBlpfBaQ4BBBBAAAEEEEAAAQQQQAABBJwXcDrAogaW8+uPASCAAAIIIIAAAggggAACCCCAAALJCjgdYFEDK9n55QYEEEAAAQQQQAABBBBAAAEEEEDAeQGnAyx2YDm//hgAAggggAACCCCAAAIIIIAAAgggkKwAAVayRCl7AzWwUtaTpyGAAAIIIIAAAggggAACCCCAQPoXcDrA4ghh+l+gjBABBBBAAAEEEEAAAQQQQAABBBBwOsAKDQuLjYmJcWoW2YHl1HTRWQQQQAABBBBAAAEEEEAAAQQQ8AEBpwMsamD5wAqiCwgggAACCCCAAAIIIIAAAggggEAqCzgdYIWGhsbGxMamMlHKPp4dWCnrydMQQAABBBBAAAEEEEAAAQQQQCD9CzgdYFEDK/0vUEaIAAIIIIAAAggggAACCCCAAAIIEGB5eQ2wA8vL4DSHAAIIIIAAAggggAACCCCAAALOCxBgeXkKCbC8DE5zCCCAAAIIIIAAAggggAACCCDgvIDTARZF3J1ffwwAAQQQQAABBBBAAAEEEEAAAQQQSFbA6QCLGljJzi83IIAAAggggAACCCCAAAIIIIAAAs4LOB1gsQPL+fXHABBAAAEEEEAAAQQQQAABBBBAAIFkBZwOsNiBlez8cgMCCCCAAAIIIIAAAggggAACCCDgvIDTARY7sJxffwwAAQQQQAABBBBAAAEEEEAAAQQQSFbA6QCLHVjJzi83IIAAAggggAACCCCAAAIIIIAAAs4LEGB5eQpjY2MVHnFKO/7Zo9qBVbzcOs0hgAACCCCAAAIIIIAAAggggAAC7gkQYHl5zgiwvAxOcwgggAACCCCAAAIIIIAAAggg4LyA0wEWNbCcX38MAAEEEEAAAQQQQAABBBBAAAEEEEhWwOkAixpYyc4vNyCAAAIIIIAAAggggAACCCCAAALOCzgdYAUFB8f6+fk5NQkcIXRquugsAggggAACCCCAAAIIIIAAAgj4gIDTAZbrO7AqV7jeB5YAXUAAAQQQQAABBBBAAAEEEEAAAQR8W+Cv1WtVtmQJ5cmVU65tZvJzPcAqX7a0b68OeocAAggggAACCCCAAAIIIIAAAgj4gMDq9RvdDbBCw8JiY2JifIDx0rvAEcJLt+JOBBBAAAEEEEAAAQQQQAABBBBAwAg4fYSQtxCyiBFAAAEEEEAAAQQQQAABBBBAAIH0L+B0gMUOrPS/QBkhAggggAACCCCAAAIIIIAAAggg4HSA5XoNrNqBVViBCCCAAAIIIIAAAggggAACCCCAAALJCBBgeXmJUAPLy+A0hwACCCCAAAIIIIAAAggggAACzgs4HWBxhND59ccAEEAAAQQQQAABBBBAAAEEEEAAgWQFnA6wKOKe7PxyAwIIIIAAAggggAACCCCAAAIIIOC8gNMBFjWwnF9/DAABBBBAAAEEEEAAAQQQQAABBBBIVoAAK1milL2BGlgp68nTEEAAAQQQQAABBBBAAAEEEEAg/QsQYHl5jgmwvAxOcwgggAACCCCAAAIIIIAAAggg4LyA0wEWNbCcX38MAAEEEEAAAQQQQAABBBBAAAEEEEhWwOkAi7cQJju/PnvD6ehohUVEKG/OnD7bRzqGAAIIIIAAAggggEB6EDgREsLfu9PDRDIGBK5yAacDLIq4u7t6CbDcnTt6jgACCCCAAAIIIOCWAAGWW/NFbxFAIGkBAiwvrwxqYMWBE2B5eeHRHAIIIIAAAggggMBVK0CAddVOPQNHIF0JuB1ghYTExjo2HQRYBFiOLVm6iwACCCCAAAIIIOC4AAGW4xNI9xFAwAq4HWCFhsaaQMiliwCLAMul9UpfEUAAAQQQQAABBNwXIMByfw4ZAQIIOB5g8RZCd5dwWhwhjDh1SkePHld0dJTy5smjPHlyuwtIzxFAAAEEEEAAAQQQuEQBAqxLhOI2BBDwaQF2YHl5etiBFQfuzQDr1KlIzfvlN82cPVcmxIq/KleqoKefeERFi1zr5VVAcwgggAACCCCAAAIIeE/AWwFWn0HDtXXbDjuwT94fLX9//yQHefT4CXV8vaf9XasnW+j2W2/xHgYtIYCAswJOB1jswHJ23Xk1wBo1/gMt+2ulxfLz81PCY6cBAQHq3f1VlS5Vwl1Meo4AAggggAACCCCAwEUEvBZgDXxbW84GWJM/GHPhAOvYcb18NsB69qnHCLBYvQggcEkCTgdYoWFhsTExMZc0UF+5iR1YcTPhrR1Y/+zZq25vDrJtPtL8Xt19x23y98+otes2asw7k+yOrCaNblbrZ57wlSVCPxBAAAEEEEAAAQQQSFEBAqwU5eRhCCCQRgJOB1jswEqjVZMCzXorwPrtj8V678NPbY+7vtpegVVu8PR+yhcztHnLNhUuVEjtX2ylQ4eP6od585UlS2Y99tD9nvsW/rlM23buUoH8+XT3HU20au16rVqz3v6++b13ae68X7Vk+QrdWKeWwiMi7M8ff+QBZc6UyX69aOlybd22U2a31+MP3293gR07fkLzf1uk9Rs3K2f27KpZI1B1a1dXtqxZtWb9Rv29aq397AP33Kk8uXPZr48eO67Zc3+2X99xWyNdW6jgeTPxxYxZMkcmWz76oBYtXqZFi5cr+kyM6tSqpka31FfWLFnsZ6Kiou327p/m/6a9+w8og5+f3YXWpOHNKle2tL1n05ZtWrL8bxUuVEDVq1bWDz/N15atO1SubCndd/cddnzzf1+ohYuW2Xpixiaw6r++5hl79+3Xgt//1NoNm3VtoQKqU6u66tSqYUNELgQQQAABBBBAAAHvCKR1gLVp8zYtWLhY27fvVPXAyqpbp6Z69XvLDp4dWN5ZA7SCQHoQcDrAYgeWu0vQWwHWnr371bXXAAuVPXs2mbpX5ox9hevLKkOGDIkAN2/drr6Dhit3rpx6Z3Tcf1DN9c4Hn+iPP5eqbJlS6tezs77+9ntN/2a2/Z352bbtO+3X999zp2bNnmu/7v9mV5U5eyzxzQFDtW37LjW7o4mefOwhrVy9VuPe+0gREf/W47LPKl1S/Xp10aHDR9Spa2/7nFfaP29DH3NNnzlbX8/6Pq5Po9+y/Tz3+l/HrgoKDlGNalW1as06Jdyh2KB+Xf3v+WfsRz6cPFU///qH/TpnjuyKio62wVdAgL96du2kcmVKad783/TRp18q3zV5dToqSiEhoZ7msmbNYgvh7z9w0POzjBkzqssr7VSlckX7s/m/L9Knn09XZGSk5x4T3pUqUVxvdOko8wwuBBBAAAEEEEAAgdQXSMsA65ffFmryZ18pKirKM9CcOXN4/m5JgJX6808LCKQXAacDrJDQ0NiE9YxcmBSOEMbNkrcCLNPWN9/9oK++/i7R8siRI7vKlC6h+nVrq16dWnZH0JUEWDmyZ1PjhjerYIF8qlblBvXsN1RBwcG2OPydtzdW9JkzevGlzoqOPqNxIwYpNjZGPfu+ZXdTPdr8Xt10Y20dPnpUH07+QgcOHtaD995ljzoOGT5Oa9Zt0I11aurl/7W2fe87eITdMVb/xtrq8OKzSS73+ADL/KXgpbatlSNHNn386Rfasm2n7eOoof11MihYHTv30pkzZ9Sq5aNq0riBrQvWvfcgmcCv/o211OHF5zwBlmnorjua6LZGDeyuLhPgmatkieJq9eSj8vPLoHHvTtKRo8c8IdyBg4fU+Y3+9rmmjdq1qmnX7r12N1xQULDatn5Kt9xcz4U/svQRAQQQQAABBBBwXiCtAizzD6Dm753m78Q1qlXRE48+aC2//vYH/blkuf2aAMv55cUAEPCaAAGW16jjGiLAinPwZoBl2tv1z159OX2WPdIWHBKa6F+AzHG/e5s1vaIA67WObVWzWlXPKpo8dbrm/jRf15crrT49Xtfvi5bo3YmTVbJEMQ3q012/LVys9ybFHWkc0LubsmbJbL/+/sdf9MuChfbriROGa42p0TVhoi18+d6Yt5QpUya17djV7pIyQVhSu6/MZ+MDrKcef1R3NW1kn7dx8zb1HzLC7kD7YNzbnr7atRgeYXdIhYaFa9io8Tp2/KQqlC+rN7u96gmwzM6qj94dafsSGhqmF17qbJ/xvzbPqMFNde3XI8e+r+V/r7K72qZMGqf4o5vFixVRx3ZtPG1+/+N8/bLgD5UpXVL9e3Xx8p8+mkMAAQQQQAABBK5OgbQKsDZu2qrBw8da9BFD+trSFOZKeEqCAOvqXJOMGoErEXA6wOII4ZVMuW98xtsBlhm1CWxMABQWHm53Ek2fOcfuQjIBzftjh+mfvfsu+wjh6LcHqEC+azyopqbVwKGjlSGDn0a+1U/9h4y0u63MbiyzK+uTz6bpx58X2PvNcb34KyYm1vbFXGPeHmDrZL302hv2+zatnlDmLJk1/t2PVKpEMQ3s0/2CkxgfYJkjejdULG/viz+SaOpfTXpnhP3Zxs1b9eEnUxUaHq6o01E2xDpz9oUI5wZYefLk0oSRQ+znTp+OUqsXO9qvX3u5rWpWjwvvxr47SYuXrrD9/uzD8frk82n6cd4C+33Celfx4zz3mKZvrEp6gQACCCCAAAIIpE+BtAqwlixboQkffGJLR0yaEPf3UHMFh4So7ctd7dcEWOlzzTEqBFJDwOkAiyLuqbEkvPNMbwVYptaTORpoghSz48cUUo+/4ndHme/f6PKKMgX4q/fAt2WOF5pAK/6KP86XVA2s98YMlTmuF3+FhoXZ/xib2lPmaN4vZ+tMDezTzdZ+mvndD5p29jjji62fStSf+GeYwpYmbHpr5HitXrNegVUq6fCRYzLH8u6/5w61SFBg/tzZig+wevd4TeXLlbG/PnzkqF7p8qZ9pgmwtu3YpYFDRyky8rQaNainqpUrqWDB/JoydYYt3F6xfDn16tbJswMrb57cGj9ysH2WqV3wzAvJB1gzv5uraV/7YT9xAAAgAElEQVR/q+sKF1LzB+4+b1GZnVo31q7hncVGKwgggAACCCCAwFUukFYBlimJ8fbod+0u/UkThitz5rjTB+YfeF9+vaf9mgDrKl+cDB+ByxBwOsCiBtZlzLSP3eqtAMu8adAczzOXOcpWvVoVZQoIsOGNeePgtBnf2jfwmV1PsZLd9WT+AztqaF/lz5fPHrFr90o3W8Q8yQBr7FDlzPFvgGXaeWfiZP2xaInd2WV2VRUvWkRD+sftplq7YZOGvD3W7gaLD7XMzzds3KJlK1ba/6i3eOg+2wfzVsTXuvexX0dHR9vnDR/cWwUL5L/gbF5KgPX1rDl295m53h83TDmyZ/fUwPpnz77zjhBeSYBl3qL49uh37FsV3x7SW3ly5bJtrNu4WSv+Xm2PVDZqUN/HViXdQQABBBBAAAEE0qdAWgVYe/cdUI8+cf8Q+nTLR3XnbXElLpYu/1ujJ0wkwEqfy41RIZBqAgRYqUab9IOpgRXn4q0AyxSO7N5nsI4fP6EAf3/lypVT2bJlUVhYhC1mbnZKNW3SUK2ebGEDFlNnynzGFGc3gdWBA4d06MhR2+dLDbDMWwDbd+omc1zOXE89/rDuanqr/dq0MfbdD2W2U+fKmUOBVSvr2LHj2r5zlw3VTOH1enVrehaPeYOiqRFgrhrVKuv1ju0uumIvJcAyNagmfTLVPqf5fc1UqmRxLfjjT61cHffWwjKlSqr/m13+0w4sc9TQvEnxxMmT9i2G1apW1t59+7Rz916dPn1aXTq1sz/jQgABBBBAAAEEEEh9gbQKsMw/xPYZOFzbduxUpkwBqljhevlnzChTdsOU9jAXO7BSf/5pAYH0IuB2gBUSEhsXEbhzEWDFzZW3AizTlvmXH/PmvBUr1yQq3m6OCjZpdLPuvvM2uwvJXHN+/EVfff2trfVkjh0GVq6kcuVK27cYXmqAZZ7TpWd/2665BvbuZkOi+Mu8pXD6N3P0x59LbZhjLlMT6o7bG+uBe+5MtJg/+vRLGySZq2P751W3VvWLLvZLCbBMvSuzS2zZXyvts8w4K1eqYOtgbdm2Q9myZZU5Gjn/t4Uy7V/JDizz3BMngzTli+lavmK13UFmrmvy5rEF82+/9Ra7s4wLAQQQQAABBBBAIPUF0irAMi8Biog4pfcmTZbZoW/eRmjqozZt0shzSoIAK/XnnxYQSC8CTgdY1MBydxl6M8CKVwqPiNC+/Qd18kSQiha9ToUK5k8yRDHHBXf/s1cF8udTnty5Ug3ZHC80u6tMgHTddYXtDrH4ywRbJuz89PPpmv/7InvP2OEDbQCUUtfRY8d07NgJXVu4kN2ZllpXVFS0du7+xxbvNDWxzFFILgQQQAABBBBAAAHvCXgrwLrYiMyOK/N3wtKlSihzpkzeGzwtIYBAuhFwOsDiLYTursO0CLBc0nr/o0+1Zu1GmeOIJuhq0ugmtX6mpUtDoK8IIIAAAggggAACPiLgCwGWj1DQDQQQcFjA6QCLIu7urjwCrIvP3egJH2jp8pX2X6eqV6ustm2escXnuRBAAAEEEEAAAQQQuFwBAqzLFeN+BBDwRQECLC/PCjWw4sAJsC6+8Mw6iYqKUkBAgD0+yIUAAggggAACCCCAwJUKEGBdqRyfQwABXxIgwPLybBBgEWB5ecnRHAIIIIAAAggggMBVLkCAdZUvAIaPQDoRcDvA4i2E6WQZMgwEEEAAAQQQQAABBBBAAAEEEEDgwgJOB1i8hZCljQACCCCAAAIIIIAAAggggAACCKR/AacDLN5CmP4XKCNEAAEEEEAAAQQQQAABBBBAAAEEnA6w2IHFAkYAAQQQQAABBBBAAAEEEEAAAQTSv4DTARY7sNL/AmWECCCAAAIIIIAAAggggAACCCCAgNMBFjuwWMAIIIAAAggggAACCCCAAAIIIIBA+hdwOsAKCQ2NjY2NdWqWTH/DI05pxz97VDuwilN9p7MIIIAAAggggAACCCCAAAIIIIBAWggQYHlZnQDLy+A0hwACCCCAAAIIIIAAAggggAACzgsQYHl5CgmwvAxOcwgggAACCCCAAAIIIIAAAggg4LwAAZaXp5AAy8vgNIcAAggggAACCCCAAAIIIIAAAs4LOB1gUcTd+fXHABBAAAEEEEAAAQQQQAABBBBAAIFkBZwOsFwv4l6zyg0KiYhIdpK4AQEEEEAAAQQQQAABBBBAAAEEELiaBdas36iyJUsoT66c8vPzc4rCz/kAq2plnYmJcQqdziKAAAIIIIAAAggggAACCCCAAALeFliyYqW7AZbrRwjr16rh7fmmPQQQQAABBBBAAAEEEEAAAQQQQMA5gfmLFhNgeXPWEhZxJ8DypjxtIYAAAggggAACCCCAAAIIIICAqwJOB1iuHyEkwHL1jw39RgABBBBAAAEEEEAAAQQQQAABbwoQYHlTWxI7sLwMTnMIIIAAAggggAACCCCAAAIIIOC8AAGWl6eQAMvL4DSHAAIIIIAAAggggAACCCCAAALOCxBgeXkKCbC8DE5zCCCAAAIIIIAAAggggAACCCDgvIDTARZvIXR+/TEABBBAAAEEEEAAAQQQQAABBBBAIFkBAqxkiVL2BnZgpawnT0MAAQQQQAABBBBAAAEEEEAAgfQv4HSAxVsI0/8CZYQIIIAAAggggAACCCCAAAIIIICA0wEWRwhZwAgggAACCCCAAAIIIIAAAggggED6F3A6wAoNC4uNiYlxapY4QujUdNFZBBBAAAEEEEAAAQQQQAABBBDwAQGnAyyOEPrACqILCCCAAAIIIIAAAggggAACCCCAQCoLuB1ghYTExqYyUEo/nh1YKS3K8xBAAAEEEEAAAQQQQAABBBBAIL0LuB1ghYbGmkDIpYsAy6XZoq8IIIAAAggggAACCCCAAAIIIOALAgRYXp4FAiwvg9McAggggAACCCCAAAIIIIAAAgg4L0CA5eUpJMDyMjjNIYAAAggggAACCCCAAAIIIICA8wJOB1jBISFunR+URIDl/J8ZBoAAAggggAACCCCAAAIIIIAAAl4WIMDyMjgBlpfBaQ4BBBBAAAEEEEAAAQQQQAABBJwXcDrACqGIu/MLkAEggAACCCCAAAIIIIAAAggggAACyQk4HWBxhDC56eX3CCCAAAIIIIAAAggggAACCCCAgPsCTgdYISEhsa4VweIIoft/aBgBAggggAACCCCAAAIIIIAAAgh4V8DpAIsdWN5dLLSGAAIIIIAAAggggAACCCCAAAIIpIWA0wEWNbDSYsnQJgIIIIAAAggggAACCCCAAAIIIOBdAQIs73qLI4ReBqc5BBBAAAEEEEAAAQQQQAABBBBwXoAAy8tTSIDlZXCaQwABBBBAAAEEEEAAAQQQQAAB5wWcDrCCg4Nj5efn1CQQYDk1XXQWAQQQQAABBBBAAAEEEEAAAQR8QMDpAIsaWD6wgugCAggggAACCCQrsOCPxTp2/IS9766mjZUta1bPZ4KCg/Xzrwvt9zWrV1XJ4kWTfR43IIAAAggggAACV5uA0wEWbyG82pYr40UAAQQQQMBNgWFj3tWOnbtt5x958B7destNnoHs3X9QA4eNtt8//fgjqlenhpuDpNcIIIAAAggggEAqChBgpSJuUo/mCKGXwWkOAQQQQAABHxBIGGAFBPjrzS6dlD//NbZnBFg+MEF0AQEEEEAAAQR8XsDpAIsjhD6/vuggAggggAACCEhKGGAZkMqVKqj9888kG2CdiozU1m07dPTYCeXKlV0lixdXvmvyJmsaGXlaGzZt1fGTJ5TBz0/58+dTxevLyt/f3352/4GDCg4JtaVEy5cr63nern/26tSpU8qbJ7cKFSyg/QcOKTgkxLaZJ09urVm3QRGnInVd4UI6ffq0/VnhggU8n9+zd7/CwsN1Td48Klggv/25uX/nrt3af/CQ/VnJ4sWUK2eOuLHvO6DQsDBlzZpFJYr9e3QyJCRU+w4ctPeUK1NKGTNm1LFjJ7R52w6Fhoba+0uXLKEi1xVO1oIbEEAAAQQQQCB9CDgdYIWGhcXGxMQ4NRPswHJquugsAggggAACKSIQH2CZ4Cbi1CmdOXNGL7dtrfLlylxwB9aWbTv07qRP7f3xl3/GjHr4/mZq2KD+Bft19NhxjZow0dbcMoFVTMwZxcTEqlSJ4vpfm6eVM0d2TZw8VStWrlGGDBk0fvhAz7OGjBiv3Xv26pb6dfT4Iw967ru14U06fuKkVq1Zrzy5c6vC9WW0ZPnftl5X107t7efNmLr3GaKQ0FC1avmo6taqroOHDuvdD6fo0OEjnjZy5syhDi+0UrEi12ne/N/1zey5ypI5s97q94YyZQqw982cPVc//vKbri1cUL26vKLVa9dr0qdf2jbMDrbTp6Pk5+enu5veqjtvb2wDLi4EEEAAAQQQSN8CTgdY1MBK34uT0SGAAAIIIJBeBOIDrOLFiqhQ/vxavnK1DWL69+yikNCw82pgHT9+Qn2HjNTpqChVvL6cbq5XWzt2/aP5vy+ywY0JgCqWL5ckT3w4VSDfNerU4QWFh0do0PCxMv/o16B+HT2RIJi61ADLBExmN5gJiopcW1j33HmbJkz8xPalb4/XVCB/Pm3YtEVj3/vI9qlPj9eUKSBAvQe9raioaFW5oaIa3Xyj5v36uzZt2S4TxL3RuaOioqM06O2x9jPPPtlCdWpWs1/36DtEJ04GqUXz+1SjWhV17z1IMbGxtt0G9etq3cZN+nTqDHtvl1faqVSJYullqTAOBBBAAAEEELiAgNMBVmhoaKz5y4xLFzuwXJot+ooAAggggEDKCCQMsP7X+mkNGTFOQcEhuq1xA9WtVeO8AOvTL2boz6V/2Z1JA3t39by18MMpX2j5itX250MH9FTA2SOBCXtpdl9t3rrdHtN79qnHVLZUCe3Zt18nTgTJ7H4yR/IudweWef4Tjz6om+rWsru2goKC1a3PYNvs/XffoTtva6TPvvxaC5csV6GC+fVm10769fc/NX3WHF1ftrQ6/q+1/ZwJ0QaPGGePDt571+1q2qSheg982+7uqlb1Br347JPaun2nRox73z67V9dX7Of6Dh5hvzcB1913NFH+fNdo7YZNOhN9RqVLFbe7wrgQQAABBBBAIH0LOB1gUQMrfS9ORocAAggggEB6EUgYYHV/tYOWrVilj6Z8aXcwPfbQ/Zo6faYdavxbCE2AY4Kc2jUD9dyTj3kYlq5YqY+nTLPfD3izq/LlzXMe0YI/FmvmnB8VGRlpf2eO5ZkjfzfdWEcVypVRpkyZLjvAMruuenbpmKit0RMmatPW7fYY5Cvt2mjgsDHau/+Anm/1pGoE3qAPPvlcf69aq+zZstngLP4yRwzDwsJVpVJ5tXu+lf5evVYffPy5rsmbVwPf7KKp02fp90VLbEjV743XFX3mjMa8M8nuQIsvHWFqdFUPrKyb6tZW4cIFbZ0vLgQQQAABBBBI3wIEWF6eX3ZgeRmc5hBAAAEEEPABgXMDLBPK9BsyUkeOHlOWLJl16lRc2BQfYA0b/a527Nqtm+vVUstHH/KMwARCJhgyV983XlfB/PnOG535u4apf2VqVC1e/rfMcURzmbCsVvVAPfdUC0+AZX42YcQgzzPMcT6zW+vcGljVq1bWC8+2TNSWKcre/61RtqbWoN7d1KlbH1tc3dSyMs8d9/7HWr9xs/Lmzq18Z9+4mPABpvh7y0cflOmvqZ1lisV369ReU76coT37DuilF59VpQrX24+Y2lc7d+/RwsXLtGLVWkVHR9ufmxpfbVs/pRvO3ucDU00XEEAAAQQQQCCVBAiwUgn2Qo8lwPIyOM0hgAACCCDgAwLnBlimS6bG04Bho22NqvgrPsB6/6PPtHLNOvs2wP49O3uKlJsjeb8sWGhvHzmkjz1KeO7118o1tl5VjaqVlS1bVhuSzfr+J1u03exqMs+LP6J47nPia0+dG2DVrF5VbZ5+/Ly2eg0YJlM0vmqVSlqzdoOty/Vy2+fsfaY4+0+//KbKlcqr/fOtPJ814ZrpU/ybDs0v3vvoM61as07lSpfSrj17lSO7CcW62s8Yp/WbtihjhoyqV6eG3YVlwr2PP/vKBnW33nKTHnnwHh+YZbqAAAIIIIAAAqkp4HSARRH31FwaPBsBBBBAAAEEUkogqQDLPDthIGW+jw+wTGDzzsTJdufRQ/c30w0VyissIty+ldAEXnfe1lD3Nbsjye4NH/uetu3Ypfp1a+neZrcro18G/fDzr7YmVYliRdTt1Q6a+/MCzZrzo/28OcJYplQJu1tr/m9x4dilBliTJk+VCczirxYP3adGN9ez35odU0NHTbBfP/7IA/b4ogmjPv5smk4GBavtc08psEol+/s16zbonUmfep6TMDDbt/+ABgwbY39nPlO2TEm7Y23sex/q0OGjerT5vWp8kbcyptQc8hwEEEAAAQQQSFsBpwMsamCl7eKhdQQQQAABBBC4NIELBVjmDX0Dho7S4aPH7IPiAyzztdm9ZHYxmfJOGTP62zDL7OS+oeL1dkeTOaaX1GXCq5HjP7A7lbJmyWLvC4+I2+X1fKuWqhFYWaFhYerR9y1FRUXZ32fI4KcA/wBdkzePzNHASw2w1qzbqHcmTbbPNsXW3x7Yy7ZpLtPX+X/8qa9nfW+/NgXno6Kj7deBVW7Q88887tlZZvpqdnOZYu7m6vDis55jgeZ3X3/7g375baG93+w6iz4TrcjI07a+V783Oit3rpyXNhHchQACCCCAAALOCjgdYLEDy9l1R8cRQAABBBC4qgRWrFqjoKAQW8y8do3ARGM3Nae2bttpf2aO4F1buKAnADJH5bbv3K1jx07YzxYrep2qVKpgw6KLXQcPHdHa9Rt19PgJG2TlyZ1LlStVsDuw4i+ze2nl6rU6fjJIBQvk0421a2jb9l02RCpyXWFbnH3dxs06fPioChbMr8oVy5/XpKlF9fufS6VY2bce1jpnbOYDpvj69p27ZPqUI3s2lS5ZwrPzKuEDze6y1f+/E6tQgfx6s1un88a4cfNWW9je7N7KnDmzrru2kKpVucHW4OJCAAEEEEAAgfQv4HSAFRISEhvr2BxRA8uxCaO7CCCAAAIIIJBqApGnT2vR4mUKDQ/XvPl/2OLs5sjkbY0apFqbPBgBBBBAAAEE3BRwOsBiB5abi45eI4AAAggggAACRiAkJFRd3hzowcicKZP69exsd3NxIYAAAggggAACCQWcDrCogcViRgABBBBAAAEE3BU4HRWlhYuX2fpeOXPksMcUc3Ak0N0JpecIIIAAAgikogABViriJvVojhB6GZzmEEAAAQQQQAABBBBAAAEEEEDAeQECLC9PIQGWl8FpDgEEEEAAAQQQQAABBBBAAAEEnBdwOsCiBpbz648BIIAAAggggAACCCCAAAIIIIAAAskKOB1gUQMr2fnlBgQQQAABBBBAAAEEEEAAAQQQQMB5AacDrKDg4Fg/Pz+nJoEjhE5NF51FAAEEEEAAAQQQQAABBBBAAAEfEHA6wOIIoQ+sILqAAAIIIIAAAggggAACCCCAAAIIpLKA0wEWRwhTeXXweAQQQAABBBBAAAEEEEAAAQQQQMAHBJwOsELDwmJjYmJ8gPHSu8ARwku34k4EEEAAAQQQQAABBBBAAAEEEEDACDgdYHGEkEWMAAIIIIAAAggggAACCCCAAAIIpH8BpwMsdmCl/wXKCBFAAAEEEEAAAQQQQAABBBBAAAGnAyxqYLGAEUAAAQQQQAABBBBAAAEEEEAAgfQvQIDl5TmmBpaXwWkOAQQQQAABBBBAAAEEEEAAAQScFyDA8vIUEmB5GZzmEEAAAQQQQAABBBBAAAEEEEDAeQGnAyyKuDu//hgAAggggAACCCCAAAIIIIAAAgggkKyA0wEWNbCSnV9uQAABBBBAAAEEEEAAAQQQQAABBJwXcDrAYgeW8+uPASCAAAIIIJCiAkePHdfJoGBdd20hZcua9bxnHz5yVBGnTqlEsaIp2i4PS1mBU5GR2rvvgIpcV1hZs2RRWFi4Dhw6rDKlSsjPzy/FGgsOCZVZM6VLFk+xZ/IgBBBAAAEEEEgdAacDLHZgpc6i4KkIIIAAAgi4KjBt5mz9+tsi3Vyvtlo+2vy8YUyeOl3bduxSvzded3WIad7v2XN/toFSi4fuS7W+7Nz9j4aOekevdnhB5cqU0sq16/X+h1M0emg/ZQoISLF2Fy9boa9mztaIQb1T7Jk8CAEEEEAAAQRSR8DpAIsdWKmzKHgqAggggAACrgrEB1hml06bZ55QjcDKiYZCgPXfZ/a9j6YoKChYXV5p998fdoEnnBtgHTtxQps2b1O9OjWVIUOGFGuXACvFKHkQAggggAACqS7gdIAVGhYWGxMTk+pIKdkAbyFMSU2ehQACCCCAQGKB+ACrZPFi9qhgz84d5e+f0XPThQKs8PAIhYSGKSY2RjmyZ1fOHNmTpTV/Bzl24qQiIyPlnzGjcufKpaxZs3g+Fxwcooz+GZU9W7ZEzzpxMkjZs2VVpkyZFBoWpthY2fbMcbaIiAhlyhQgf39/5cyRI9HnTp2KVMSpCOXNk8fz84iIUwoKDrGhTu5cOZU5cyb7O3MEzzwrV86cypjx3/GbPgcFBytr1qzKkjmzvff4iRMKjziljBkyKnfunEkevTT3nTlzRsEhIfps2je2r/9r/ZSyZMlij/jFX2Y8oaFh9phfjhzZzxv7hVCNf3BoqG3jmjx5dPDw4UQ7sE5HRSksLEx5cuf2HCEMDQtXcEiw9TPHRfPmye15fOTp0woPD7f3m3k1/Qrw91cuY5QpzshcFwqwjp84adePuXJkz2YdzZjCwsMVFRWtPLlzJRqK+fvdyaCgRK7JLiBuQAABBBBAAIHLEnA6wOII4WXNNTcjgAACCCCQ7gXiA6wer72kt0ZNUM1qVfTsky08404qwNqwaas+/nyaTEBkgggTdNxxWyPd0aThBb3Mfe98+Kk2b9mmM2dilMHPTwGZAvS/1k+rbOmS9nNDR01QsaLX6fGHH0j0nK5vDlKL5veqRrUq+vDTL3Qq8rTuvK2RJkz8xIZW1+TNLVOrq3/PLok+N/GTqTpy9Ki6v/aS/fn6jZv18WdfKfJ0pPzkp2zZsur1l9sq3zV5tW7jZk385HN1eOFZT3/MZ/btP6BhY95Vm6cfV4Xry2ncex9p1z97FH3mjA1ozPG8p594WIGVK5039oOHjmjIyHE2wDGpkRlvs6ZN1PTWW+y9C/74U9/+ME/R5vd+skHRE488oOqBVS667rZt36n3P/lcp06dsv4mELutcQN9891czxHC1es36qNPv9DQ/j1tHxcuWaavv/1BUVFRUqxsUHhDhfJq88zjdhzLVqzS5199o+eefEwffTZN0dHRypDBjC+TOndsq4IF8ts+nRtgmbGNee9D7dm7T2eiz9h7/AP87Thvb9xAvy9arJlzftKQPj1s0Bh/7d6zTyPHv69ur3ZQ4YIF0v2fMwaIAAIIIIBAWggQYHlZnR1YXganOQQQQACBq0ogPsAaMbi3liz7W9O++U6vtG+j8mXLWIdzA6x1GzZr/Acf6+Yba+umenXsbq0VK9do3q+/65EH7lHDm+sl6ffDvPn6+dc/1KrloypUqKDddTRj1mwFh4TZ+lomRBkwbLSKFyuipx97ONEzXunWRy0ffVC1awTqvQ+naM/e/QoKCVajBvVVtlRJG0ANGj5WL734rCqWL2c/a3Ybde01QA/ce5cNUg4eOqy3Rk7QrY1uVo2qlRUVHa3fFy3RilVr1a1Te7trqGvvQWrS6GY9dF8zT/sL/lhsTQb36aat23dq0uQv9NRjD9mQywR4M+f8qGPHT6hvj9fOG7fZ1bRz1z+a/eMvdjdUi+b3qUD+fLa/y/5apclTv1LjW+qrTq3qiomJ1ZLlK2Tae+HZJ1W96g1JOm7fuVvDx76nOrWq6Zb6de2uNBMofv/TL4qMPH3BGlhd3xyoCuXL6o4mjWx4uHrdBs2c/aNebvucNVu8/G9N/vwr27/m996lggXz68SJk5rx7fc2KOvx2st2h9i5Adb83xdp+sw51qR40SI2iJs5e64OHDysAb26yOwU6zlgqOrWqm7HH39N+/o7bdi8RX26n+92Vf0BZLAIIIAAAgikooDTARY1sFJxZfBoBBBAAAEEHBRIGGBl8MtgQySzE8jsusmcOfN5AZbZUXTiRJD69+xsw5P466Mp07T871V6q1+P847ymXs++/Jrrd2wSV07tfMcazPBjwls7mra2B5pu9QAy4Qvz7d6QtWr/luvq8/g4SpVorieeeIR26XNW7dr1ISJeuP1l+0bFnsOGKZSxYvq+VYtPX02R95MsGN2j93dtIk+/2qmVq1Zr4G9u9pdZeYf0cyusPz58qn104/p5wV/aMas720tq1Ilitnn7DtwUMv+WqkH773rgrN/bg0sE+p07jVAVSpVUNvWT3k+Z0K1voNGKCCTv3p3ezXJ502aPFWr1m7QkL7dEx03nPX9T5o779ckAyxzXPOVbr3V9NaGanZHExtgnT59Wt/98LOqVq5oi77HB1hmB1iD+nU9bZujiMbIBJMP3H3HeQGW2fVljknGu5sP/v7nUs2YNUej3+pnn2MCwN8WLtHbA3t5jk8OfHuMnS/THhcCCCCAAAIIpI6A0wEWRwhTZ1HwVAQQQAABBFwVSBhgmaNoYRER6tn3Ld1Yp4bdMZNwB5YJWDp2eVP33HWbmt1+a6Ihr1m3Ue9Mmqxur7ZXiWJFz+PY/c9evT32PWXMmEGm3pbZkVO7ZjVbCyv+utQAa+/+AzZAS3iZgGzrjl3q0z0u+Pn6ux+0ZNkKDenbI2431psDVb5caV13beFEnzOBlalj1fWV9vao32tv9NPTjz+kWtUDtffAQQ0ZPk5v9XvD1uDaf+CgBgwbY4/kFS1yrerWrq5a1QIT1fFKah2cG2Dt22pn/5cAABm8SURBVG+eM9oWzTdHNhNeCxYt1ZfTZ9qw59xaYOa+nv2Hqsi1hfS/Ns8k+tyWbTvtkbwLvYVw1PgPtG3nLlubytib/1+4UEHPM+IDLPN2wYR1ycwNJsQzxy3N8coL1cAyO+o2b9+hLVt26K+VqxV9JtoTYO3Yudsew+zU/nldX7a0TB2yzj37q/vrL6nIOfPh6p8j+o0AAggggIAvCjgdYLEDyxeXFH1CAAEEEEAg7QTODbBMT0zNot8XLlb31zroh3m/atuOXfaY38mgYHXvM9geAzQBSMJr05btGv3ORE+AktSIjhw9JhN0bdq6TTt377FH02oEVlHLR5vbYuoXDrB623vijxCaguGmbwkvU1PJBC0mwDJH9EzQ8+B9zVS7elUdPXZcvQYMU7Ei1yYq6B7/+Zw5c+jJFs3ttyPGvW93g5mdUWYXkQnFzBHD+OvEyZNauXq9Nm/bru07dsscEwysXFHPPfXYBd/2d26AFf/GwA4vtNINFcsnGoep0zXu/Y/tOAolURvq1R597Zgef+TBRJ8zdbnMEckLBVinT0fZY4Obt2zX9p27dOjIUV1buJCeeOR+lSlV0u7AmvLFDI17e4Cn6Ht8AyPHf2B3o5lnnxtgrd+0xdbWMnW8zPHPggXz2aOMf/y51BNgmbpbZj5qVquqR5vfq6kzZungwcM20OJCAAEEEEAAgdQTcDrAYgdW6i0MnowAAggggICLAkkFWObNdiYMCQkNVamSxbV33wEbYJkQw9Sjql2jqp5s8VCi4S5Z/rc++fwr9er6iq4rXOg8ChN+maNr5q125jJH2EzdrO9/nK/m99+lJg0baOCwMXZnU8LjaCYM6dS9jy0sHx9gBYWEqEvH/53Xxlsjx6tAvvyqd2NNfTTlSw3t94a9xwRlr/bop/ubNbXHBRNex44ft28wNG9ENNfCxcs0e+7PGtynuwaPGK9qVSqpWdO43Wbm7YX2rX95/32roak9ZY7iPf7Q/brl5huTXALnBlim4HzvQcNtsfpbbvr3uJ75sNk5Nv+3hRo1pK/t17nXkBHjFBMbq+6vdkgUNK1dv1ETJk5OMsAy8xYcHKr8+fJ6PrN1+w6NefcjFS96rTp3bOc5QmhqUhUqGFewPf7qP3S0CuS/Rm2feypRgGXe0Gh2tpkgzNQfCwiIK9JujpJO+fJrT4BlfmaKxJu6V29263Q2BH1EtWtUc/GPDH1GAAEEEEDAGQECLC9PFUXcvQxOcwgggAACV5VAUgGWAdixa7eGjX7Xhih58+S2AZa5TDBhduH07fG6DUTMZYKMvkNG6lRkpAa+2TXRscB4TFN83dSceqVdm0S+phZU4wb1bUj09ph3bUjWOUE4NfnzaVq8fKXd4ZRcgPXn0r9s/0xtqZjYGLV/vpWnLRNomWN2/Xu+7gmGTpwMUp/BI+zbE+NDKvP2vW69B6nFQ/fr0y9maHDvbsqePZt9zrRvZttjicMG9FTGs0cfzf0mYDOfv+ucY5WesX80xe5e6/pKO49Xn0HD7ZsMjWt8UHUyKEg9+w9T9cDKav3UY0muw18WLNT0WXPU4/WXVKzIdfYeYzbm3Ukyu+CS2oEVEhKqfkNG6rWObVX87GfM58xus7DwCPXq0tETYNWvU0tPPf5vOLln3z4NGT5eLVs0V/26tRIFWKYWWo9+Q/TU4w+rfp2anv6aOl1mp93ooXE1sOL72KPvEN1Q8XotWvKXBvbupmvy5La/MzW0Mmb0t8c0uRBAAAEEEEAg5QScDrBCw8JizV8yXboIsFyaLfqKAAIIIOCawIUCLPPfX/MGOhOYmDfTxQdY5hjgyAkT5Z8xg6pWriT/jP4yu39Cw8NtOHVtgrpKCS3M8TUTbFS8vqxKFC9mQxcTKJm3A77a4Xl7XM7sfPrxl99syGFqI5laUX4Z/GxBdrNbKbkAyxyLM8GQCZeeafmIalcP9HTBHPUbMmK8bbeyObbnJ23bvkuHDh9R99deUsEC+Tz3fvv9PLs7rGa1ymrVsoXn5+YthCb0KV+ujC18niFDBm3aslUHDh5Rz84ve3aXnbsGvpo5W38u+UuBVSrZmldVbqioY8dOaPi492zB/KpVKinmTIzWbtioiIhIdWrfJlF9qoTPCw4OsWGVqetVrcoNNlzbtGWbDaLMWC50hHDw8HEKCwtXzepVbG2tQ4ePavHyFXr4/rt1a8ObPAGW2QGXP9811t8EfEv/Wmm9TNF845rwCKGxNLvmTgYHq0G9OtZj1z97ZUI9Y3XnbY10e+NbPDW1TIho3lhp5jdhDa+XXu+pcmVL2zciciGAAAIIIIBAygk4HWBRAyvlFgJPQgABBBBAID0I/PrHYq1cvVbtX2hlw5Rzrw8++VwZM2SwO6DirzMxMZo+c45M3aXYmFgbPt3X7HZbe+pi15ZtOzT7x18UERFhj7IVyHeN7mvW1FPryQQic3/+1e7eMZcJNZrfe5fM7q2GN9+oCteXlQmXwsLDbKB17mU+//5HnykyMlLtXmh13k4wUzz8m9lztWfvfrtrzByVe/iBe5QrZ45EjzI1v4aPfU8vtX1OlcqXS/S77Tt3a+7PCxQUFGxDsIIF8tuQpkSxIhccuilw/u33P9m6U2YXU3z9MLMr69vvf9T+g4flJz8VK3qdHnngHgUEnH90MOHDzTjNUUNTg8vsNCtdsrhuurG2vpzxra0xVfS6a23tru++/8mOwbxRMTgk1NYz27nrH3sM0hRlr1OzmurVqWmDp/gi7oN6d9NX38zWkWPH7HooU7qE7rnzdvsMc5kaXQsWLvbsbjOB5hczZtnnZ8mcWRXLl9UdTRrp/Y8/sz/7X+unPb6r1q7XxE8+t2HoNXn/XSuj35lk+/zQ/c3Swx8pxoAAAggggIDPCDgdYLEDy2fWER1BAAEEEEDAeYGYmFhzgO2CxcuTGqAJX+J2g/vZNxImdcXvFjfBSmpcpt/m/5lgLqnr19//1LRvvlNSb+Qz9/87BnmOEv6Xfl7peK/E37Rl+m9sTYgYf8UHWBNGDLI/NyHXufdcaIyxseYYaeL7TRvm5xky/NvG1OmzbIBmjj9yIYAAAggggEDqCzgdYFHEPfUXCC0ggAACCCCAgJsCZoeYqdM19auZuv3WhmrS8CY3B3IFvT43wLqCR1zwI//s3aegoBBN+XKGbmt8i25v3CAlH8+zEEAAAQQQQOACAgRYXl4a1MDyMjjNIYAAAgggcJUKDB4+VseOn1DpkiXU7vlnriqFv1ev04xZczSgV5dEO7NSAuGdSZNljmWWK11KLzzb8rJ27KVE+zwDAQQQQACBq1XA6QCLI4RX67Jl3AgggAACCCCQnICpnWWO5WXKFJAiRwOTa8+Xfm/qmpni60nVQfuv/TQF9E2R+syZMxFe/VdMPo8AAggggMBlCDgdYFHE/TJmmlsRQAABBBBAAAEEEEAAAQQQQAABRwWcDrCogeXoqqPbCCCAAAIIIIAAAggggAACCCCAwGUIEGBdBlZK3EoNrJRQ5BkIIIAAAggggAACCCCAAAIIIHA1CbgdYIWEmDcaO3URYDk1XXQWAQQQQAABBBBAAAEEEEAAAQR8QMDpAIsaWD6wgugCAggggAACCCCAAAIIIIAAAgggkMoCTgdYvIUwlVcHj0cAAQQQQAABBBBAAAEEEEAAAQR8QMDpAIsi7j6wgugCAggggAACCCCAAAIIIIAAAgggkMoCBFipDHzu46mB5WVwmkMAAQQQQAABBBBAAAEEEEAAAecFCLC8PIUEWF4GpzkEEEAAAQQQQAABBBBAAAEEEHBewO0Ai7cQOr8AGQACCCCAAAIIIIAAAggggAACCCCQnIDTARZvIUxuevk9AggggAACCCCAAAIIIIAAAggg4L6A0wEWbyF0fwEyAgQQQAABBBBAAAEEEEAAAQQQQCA5AacDLHZgJTe9/B4BBBBAAAEEEEAAAQQQQAABBBBwX8DpAIsdWO4vQEaAAAIIIIAAAggggAACCCCAAAIIJCfgdIDFDqzkppffI4AAAggggAACCCCAAAIIIIAAAu4LOB1ghYaGxsbExjo1C7GxsQqPOKUd/+xR/Vo1nOo7nUUAAQQQQAABBBBAAAEEEEAAAQTSQsDpACskNDTWBEIuXQRYLs0WfUUAAQQQQAABBBBAAAEEEEAAAV8QIMDy8iwQYHkZnOYQQAABBBBAAAEEEEAAAQQQQMB5AQIsL08hAZaXwWkOAQQQQAABBBBAAAEEEEAAAQScF3A6wKKIu/PrjwEggAACCCCAAAIIIIAAAggggAACyQo4HWBRAyvZ+eUGBBBAAAEEEEAAAQQQQAABBBBAwHkBAiwvTyFHCL0MTnMIIIAAAggggAACCCCAAAIIIOC8gNMBFkcInV9/DAABBBBAAAEEEEAAAQQQQAABBBBIVoAAK1milL2BHVgp68nTEEAAAQQQQAABBBBAAAEEEEAg/Qs4HWBRAyv9L1BGiAACCCCAAAIIIIAAAggggAACCBBgeXkNsAPLy+A0hwACCCCAAAIIIIAAAggggAACzgsQYHl5CgmwvAxOcwgggAACCCCAAAIIIIAAAggg4LwAAZaXp5AAy8vgNIcAAggggAACCCCAAAIIIIAAAs4LOB1g8RZC59cfA0AAAQQQQAABBBBAAAEEEEAAAQSSFSDASpYoZW9gB1bKevI0BBBAAAEEEEAAAQQQQAABBBBI/wJOB1i8hTD9L1BGiAACCCCAAAIIIIAAAggggAACCDgdYHGEkAWMAAIIIIAAAggggAACCCCAAAIIpH8BpwOs0LCw2JiYGKdmiSOETk0XnUUAAQQQQAABBBBAAAEEEEAAAR8QcDrA4gihD6wguoAAAggggAACCCCAAAIIIIAAAgiksgABVioDn/t4dmB5GZzmEEAAAQQQQAABBBBAAAEEEEDAeQECLC9PIQGWl8FpDgEEEEAAAQQQQAABBBBAAAEEnBcgwPLyFBJgeRmc5hBAAAEEEEAAAQQQQAABBBBAwHkBAiwvTyEBlpfBaQ4BBBBAAAEEEEAAAQQQQAABBJwXcDrACg4JiXVtBgiwXJsx+osAAggggAACCCCAAAIIIIAAAmktQIDl5RkgwPIyOM0hgAACCCCAAAIIIIAAAggggIDzAk4HWCGhobEmEHLpig+wdu7ZoxJFiyjydJRiYmJcGgJ9RQABBBBAAAEEEEAAAQQQQAABBLwi4Ofnp0wBAdq6c5fKlCiuPLlyyvzMpcvPxSOEBjgy8rT2Hz6sXXv36djx44qKjpZbMZxLy4S+IoAAAggggAACCCCAAAIIIICAqwL+GTIqb+7cKl70OhUpVEjZs2UlwPLWZJodVya0OnUqUtHR0Yqxu8iIsLzlTzsIIIAAAggggAACCCCAAAIIIOCGgNlt5Z/RX1kyZ1ZApgBlzJDBjY4n6KWfi0cInVOmwwgggAACCCCAAAIIIIAAAggggAACVyxAgHXFdHwQAQQQQAABBBBAAAEEEEAAAQQQQMAbAgRY3lCmDQQQQAABBBBAAAEEEEAAAQQQQACBKxYgwLpiOj6IAAIIIIAAAggggAACCCCAAAIIIOANAb/g4OBYOfbqRG/A0AYCCCCAAAIIIIAAAggggAACCCCAgG8I+AWHhPDqPt+YC3qBAAIIIIAAAggggAACCCCAAAIIIJCEAAEWywIBBBBAAAEEEEAAAQQQQAABBBBAwKcF/IKCg2P9OELo05NE5xBAAAEEEEAAAQQQQAABBBBAAIGrWYAi7lfz7DN2BBBAAAEEEEAAAQQQQAABBBBAwAEBAiwHJokuIoAAAggggAACCCCAAAIIIIAAAlezADWwrubZZ+wIIIAAAggggAACCCCAAAIIIICAAwLswHJgkugiAggggAACCCCAAAIIIIAAAgggcDULEGBdzbPP2BFAAAEEEEAAAQQQQAABBBBAAAEHBAiwHJgkuogAAggggAACCCCAAAIIIIAAAghczQIEWFfz7DN2BBBAAAEEEEAAAQQQQAABBBBAwAEBirg7MEl0EQEEEEAAAQQQQAABBBBAAAEEELiaBdiBdTXPPmNHAAEEEEAAAQQQQAABBBBAAAEEHBBgB5YDk0QXEUAAAQQQQAABBBBAAAEEEEAAgatZwC8kJCQ29moWYOwIIIAAAggggAACCCCAAAIIIIAAAj4twA4sn54eOocAAggggAACCCCAAAIIIIAAAgggQA0s1gACCCCAAAIIIIAAAggggAACCCCAgE8LEGD59PTQOQQQQAABBBBAAAEEEEAAAQQQQAABAizWAAIIIIAAAggggAACCCCAAAIIIICATwtQA8unp4fOIYAAAggggAACCCCAAAIIIIAAAgiwA4s1gAACCCCAAAIIIIAAAggggAACCCDg0wJ+/9feHRxbEsIwACzyj3bfwHHxTwOVOgO5NScXMP9+v1lrPR1SOAIECBAgQIAAAQIECBAgQIAAgV4BVwh7uzc5AQIECBAgQIAAAQIECBAgQCBCwBXCiJqEJECAAAECBAgQIECAAAECBAj0Cqx9ztx7ewVMToAAAQIECBAgQIAAAQIECBAg8LSAK4RP1yMcAQIECBAgQIAAAQIECBAgQICAE1i+AQIECBAgQIAAAQIECBAgQIAAgacFvIH1dD3CESBAgAABAgQIECBAgAABAgQIWGD5BggQIECAAAECBAgQIECAAAECBJ4WsMB6uh7hCBAgQIAAAQIECBAgQIAAAQIEPOLuGyBAgAABAgQIECBAgAABAgQIEHhawAmsp+sRjgABAgQIECBAgAABAgQIECBAwAks3wABAgQIECBAgAABAgQIECBAgMDTAk5gPV2PcAQIECBAgAABAgQIECBAgAABAk5g+QYIECBAgAABAgQIECBAgAABAgSeFlj7nLn3Ph1SOAIECBAgQIAAAQIECBAgQIAAgV4BVwh7uzc5AQIECBAgQIAAAQIECBAgQCBCwAIroiYhCRAgQIAAAQIECBAgQIAAAQK9At7A6u3e5AQIECBAgAABAgQIECBAgACBCAEnsCJqEpIAAQIECBAgQIAAAQIECBAg0CvgBFZv9yYnQIAAAQIECBAgQIAAAQIECEQIOIEVUZOQBAgQIECAAAECBAgQIECAAIFeAQus3u5NToAAAQIECBAgQIAAAQIECBCIEFj7nLn3RoQVkgABAgQIECBAgAABAgQIECBAoE/AG1h9nZuYAAECBAgQIECAAAECBAgQIBAlsM45898JrKjShCVAgAABAgQIECBAgAABAgQINAl4A6upbbMSIECAAAECBAgQIECAAAECBAIFLLACSxOZAAECBAgQIECAAAECBAgQINAk4BH3prbNSoAAAQIECBAgQIAAAQIECBAIFPCIe2BpIhMgQIAAAQIECBAgQIAAAQIEmgRcIWxq26wECBAgQIAAAQIECBAgQIAAgUABC6zA0kQmQIAAAQIECBAgQIAAAQIECDQJrO/7ZpomNisBAgQIECBAgAABAgQIECBAgECUgDewouoSlgABAgQIECBAgAABAgQIECDQJ+AvhH2dm5gAAQIECBAgQIAAAQIECBAgECXgDayouoQlQIAAAQIECBAgQIAAAQIECPQJWGD1dW5iAgQIECBAgAABAgQIECBAgECUgAVWVF3CEiBAgAABAgQIECBAgAABAgT6BCyw+jo3MQECBAgQIECAAAECBAgQIEAgSsBfCKPqEpYAAQIECBAgQIAAAQIECBAg0CfgL4R9nZuYAAECBAgQIECAAAECBAgQIBAl4ARWVF3CEiBAgAABAgQIECBAgAABAgT6BJzA6uvcxAQIECBAgAABAgQIECBAgACBKAEnsKLqEpYAAQIECBAgQIAAAQIECBAg0Cew9t5zZ/omNzEBAgQIECBAgAABAgQIECBAgECEwPr2nrHAiihLSAIECBAgQIAAAQIECBAgQIBAo4AFVmPrZiZAgAABAgQIECBAgAABAgQIBAl4xD2oLFEJECBAgAABAgQIECBAgAABAo0CHnFvbN3MBAgQIECAAAECBAgQIECAAIEgAVcIg8oSlQABAgQIECBAgAABAgQIECDQKGCB1di6mQkQIECAAAECBAgQIECAAAECQQKuEAaVJSoBAgQIECBAgAABAgQIECBAoFHAAquxdTMTIECAAAECBAgQIECAAAECBIIEXCEMKktUAgQIECBAgAABAgQIECBAgECjgAVWY+tmJkCAAAECBAgQIECAAAECBAgECVhgBZUlKgECBAgQIECAAAECBAgQIECgUcACq7F1MxMgQIAAAQIECBAgQIAAAQIEggQ84h5UlqgECBAgQIAAAQIECBAgQIAAgUYBC6zG1s1MgAABAgQIECBAgAABAgQIEAgScIUwqCxRCRAgQIAAAQIECBAgQIAAAQKNAk5gNbZuZgIECBAgQIAAAQIECBAgQIBAkMDa58y9NyiyqAQIECBAgAABAgQIECBAgAABAk0CrhA2tW1WAgQIECBAgAABAgQIECBAgECggAVWYGkiEyBAgAABAgQIECBAgAABAgSaBCywmto2KwECBAgQIECAAAECBAgQIEAgUMACK7A0kQkQIECAAAECBAgQIECAAAECTQIWWE1tm5UAAQIECBAgQIAAAQIECBAgECiwft83gblFJkCAAAECBAgQIECAAAECBAgQKBGwwCop2pgECBAgQIAAAQIECBAgQIAAgVQBVwhTm5ObAAECBAgQIECAAAECBAgQIFAi4ARWSdHGJECAAAECBAgQIECAAAECBAikClhgpTYnNwECBAgQIECAAAECBAgQIECgROAP6hrWdx6th3sAAAAASUVORK5CYII=;" vertex="1" parent="LnaqzA2VaRDY9GP4299t-7">
          <mxGeometry x="14.433128961862202" y="2.989690721649484" width="109.8230353309308" height="50.60999775146725" as="geometry" />
        </mxCell>
        <mxCell id="LnaqzA2VaRDY9GP4299t-6" value="" style="rounded=0;whiteSpace=wrap;html=1;strokeColor=none;fillColor=light-dark(#f2f3f3, #141414);" vertex="1" parent="LnaqzA2VaRDY9GP4299t-7">
          <mxGeometry x="14.433128961862202" y="53.50515463917525" width="109.82477108415847" height="28.96907216494845" as="geometry" />
        </mxCell>
        <mxCell id="LnaqzA2VaRDY9GP4299t-1" value="Frontend application" style="sketch=0;pointerEvents=1;shadow=0;dashed=0;html=1;strokeColor=none;fillColor=#434445;aspect=fixed;labelPosition=center;verticalLabelPosition=bottom;verticalAlign=top;align=center;outlineConnect=0;shape=mxgraph.vvd.laptop;" vertex="1" parent="LnaqzA2VaRDY9GP4299t-7">
          <mxGeometry width="138.8878048780488" height="99.99938445963342" as="geometry" />
        </mxCell>
        <mxCell id="LnaqzA2VaRDY9GP4299t-12" value="" style="edgeStyle=orthogonalEdgeStyle;rounded=0;orthogonalLoop=1;jettySize=auto;html=1;" edge="1" parent="1">
          <mxGeometry relative="1" as="geometry">
            <mxPoint x="520" y="560" as="sourcePoint" />
            <mxPoint x="520" y="490" as="targetPoint" />
          </mxGeometry>
        </mxCell>
        <mxCell id="LnaqzA2VaRDY9GP4299t-13" value="" style="edgeStyle=orthogonalEdgeStyle;rounded=0;orthogonalLoop=1;jettySize=auto;html=1;" edge="1" parent="1">
          <mxGeometry relative="1" as="geometry">
            <mxPoint x="640" y="490" as="targetPoint" />
            <mxPoint x="570" y="611" as="sourcePoint" />
            <Array as="points">
              <mxPoint x="640" y="611" />
            </Array>
          </mxGeometry>
        </mxCell>
        <mxCell id="LnaqzA2VaRDY9GP4299t-15" value="" style="edgeStyle=orthogonalEdgeStyle;rounded=0;orthogonalLoop=1;jettySize=auto;html=1;" edge="1" parent="1">
          <mxGeometry relative="1" as="geometry">
            <mxPoint x="520" y="660" as="sourcePoint" />
            <mxPoint x="520" y="730" as="targetPoint" />
          </mxGeometry>
        </mxCell>
        <mxCell id="LnaqzA2VaRDY9GP4299t-8" value="" style="sketch=0;points=[[0,0,0],[0.25,0,0],[0.5,0,0],[0.75,0,0],[1,0,0],[0,1,0],[0.25,1,0],[0.5,1,0],[0.75,1,0],[1,1,0],[0,0.25,0],[0,0.5,0],[0,0.75,0],[1,0.25,0],[1,0.5,0],[1,0.75,0]];outlineConnect=0;fontColor=#232F3E;fillColor=#8C4FFF;strokeColor=#ffffff;dashed=0;verticalLabelPosition=bottom;verticalAlign=top;align=center;html=1;fontSize=12;fontStyle=0;aspect=fixed;shape=mxgraph.aws4.resourceIcon;resIcon=mxgraph.aws4.cloudfront;" vertex="1" parent="1">
          <mxGeometry x="480" y="571" width="80" height="80" as="geometry" />
        </mxCell>
        <mxCell id="LnaqzA2VaRDY9GP4299t-9" value="" style="edgeStyle=orthogonalEdgeStyle;rounded=0;orthogonalLoop=1;jettySize=auto;html=1;" edge="1" parent="1" source="LnaqzA2VaRDY9GP4299t-1">
          <mxGeometry relative="1" as="geometry">
            <mxPoint x="470" y="611" as="targetPoint" />
          </mxGeometry>
        </mxCell>
        <mxCell id="LnaqzA2VaRDY9GP4299t-10" value="" style="sketch=0;points=[[0,0,0],[0.25,0,0],[0.5,0,0],[0.75,0,0],[1,0,0],[0,1,0],[0.25,1,0],[0.5,1,0],[0.75,1,0],[1,1,0],[0,0.25,0],[0,0.5,0],[0,0.75,0],[1,0.25,0],[1,0.5,0],[1,0.75,0]];outlineConnect=0;fontColor=#232F3E;fillColor=#7AA116;strokeColor=#ffffff;dashed=0;verticalLabelPosition=bottom;verticalAlign=top;align=center;html=1;fontSize=12;fontStyle=0;aspect=fixed;shape=mxgraph.aws4.resourceIcon;resIcon=mxgraph.aws4.s3;" vertex="1" parent="1">
          <mxGeometry x="480" y="400" width="80" height="80" as="geometry" />
        </mxCell>
        <mxCell id="LnaqzA2VaRDY9GP4299t-11" value="" style="sketch=0;points=[[0,0,0],[0.25,0,0],[0.5,0,0],[0.75,0,0],[1,0,0],[0,1,0],[0.25,1,0],[0.5,1,0],[0.75,1,0],[1,1,0],[0,0.25,0],[0,0.5,0],[0,0.75,0],[1,0.25,0],[1,0.5,0],[1,0.75,0]];outlineConnect=0;fontColor=#232F3E;fillColor=#DD344C;strokeColor=#ffffff;dashed=0;verticalLabelPosition=bottom;verticalAlign=top;align=center;html=1;fontSize=12;fontStyle=0;aspect=fixed;shape=mxgraph.aws4.resourceIcon;resIcon=mxgraph.aws4.cognito;" vertex="1" parent="1">
          <mxGeometry x="600" y="400" width="80" height="80" as="geometry" />
        </mxCell>
        <mxCell id="LnaqzA2VaRDY9GP4299t-17" value="" style="edgeStyle=orthogonalEdgeStyle;rounded=0;orthogonalLoop=1;jettySize=auto;html=1;" edge="1" parent="1">
          <mxGeometry relative="1" as="geometry">
            <mxPoint x="710" y="780" as="targetPoint" />
            <mxPoint x="570" y="780" as="sourcePoint" />
          </mxGeometry>
        </mxCell>
        <mxCell id="LnaqzA2VaRDY9GP4299t-14" value="" style="sketch=0;points=[[0,0,0],[0.25,0,0],[0.5,0,0],[0.75,0,0],[1,0,0],[0,1,0],[0.25,1,0],[0.5,1,0],[0.75,1,0],[1,1,0],[0,0.25,0],[0,0.5,0],[0,0.75,0],[1,0.25,0],[1,0.5,0],[1,0.75,0]];outlineConnect=0;fontColor=#232F3E;fillColor=#E7157B;strokeColor=#ffffff;dashed=0;verticalLabelPosition=bottom;verticalAlign=top;align=center;html=1;fontSize=12;fontStyle=0;aspect=fixed;shape=mxgraph.aws4.resourceIcon;resIcon=mxgraph.aws4.api_gateway;" vertex="1" parent="1">
          <mxGeometry x="480" y="740" width="80" height="80" as="geometry" />
        </mxCell>
        <mxCell id="LnaqzA2VaRDY9GP4299t-21" value="" style="edgeStyle=orthogonalEdgeStyle;rounded=0;orthogonalLoop=1;jettySize=auto;html=1;" edge="1" parent="1">
          <mxGeometry relative="1" as="geometry">
            <mxPoint x="760" y="730" as="sourcePoint" />
            <mxPoint x="760" y="660" as="targetPoint" />
          </mxGeometry>
        </mxCell>
        <mxCell id="LnaqzA2VaRDY9GP4299t-16" value="" style="sketch=0;points=[[0,0,0],[0.25,0,0],[0.5,0,0],[0.75,0,0],[1,0,0],[0,1,0],[0.25,1,0],[0.5,1,0],[0.75,1,0],[1,1,0],[0,0.25,0],[0,0.5,0],[0,0.75,0],[1,0.25,0],[1,0.5,0],[1,0.75,0]];outlineConnect=0;fontColor=#232F3E;fillColor=#ED7100;strokeColor=#ffffff;dashed=0;verticalLabelPosition=bottom;verticalAlign=top;align=center;html=1;fontSize=12;fontStyle=0;aspect=fixed;shape=mxgraph.aws4.resourceIcon;resIcon=mxgraph.aws4.lambda;" vertex="1" parent="1">
          <mxGeometry x="720" y="740" width="80" height="80" as="geometry" />
        </mxCell>
        <mxCell id="LnaqzA2VaRDY9GP4299t-19" value="" style="edgeStyle=orthogonalEdgeStyle;rounded=0;orthogonalLoop=1;jettySize=auto;html=1;" edge="1" parent="1">
          <mxGeometry relative="1" as="geometry">
            <mxPoint x="810" y="780" as="targetPoint" />
            <mxPoint x="950" y="780" as="sourcePoint" />
          </mxGeometry>
        </mxCell>
        <mxCell id="LnaqzA2VaRDY9GP4299t-24" value="" style="edgeStyle=orthogonalEdgeStyle;rounded=0;orthogonalLoop=1;jettySize=auto;html=1;" edge="1" parent="1">
          <mxGeometry relative="1" as="geometry">
            <mxPoint x="1000" y="730" as="sourcePoint" />
            <mxPoint x="1000" y="660" as="targetPoint" />
          </mxGeometry>
        </mxCell>
        <mxCell id="LnaqzA2VaRDY9GP4299t-18" value="" style="sketch=0;points=[[0,0,0],[0.25,0,0],[0.5,0,0],[0.75,0,0],[1,0,0],[0,1,0],[0.25,1,0],[0.5,1,0],[0.75,1,0],[1,1,0],[0,0.25,0],[0,0.5,0],[0,0.75,0],[1,0.25,0],[1,0.5,0],[1,0.75,0]];outlineConnect=0;fontColor=#232F3E;gradientColor=#4D72F3;gradientDirection=north;fillColor=#3334B9;strokeColor=#ffffff;dashed=0;verticalLabelPosition=bottom;verticalAlign=top;align=center;html=1;fontSize=12;fontStyle=0;aspect=fixed;shape=mxgraph.aws4.resourceIcon;resIcon=mxgraph.aws4.connect;" vertex="1" parent="1">
          <mxGeometry x="960" y="740" width="80" height="80" as="geometry" />
        </mxCell>
        <mxCell id="LnaqzA2VaRDY9GP4299t-20" value="" style="sketch=0;points=[[0,0,0],[0.25,0,0],[0.5,0,0],[0.75,0,0],[1,0,0],[0,1,0],[0.25,1,0],[0.5,1,0],[0.75,1,0],[1,1,0],[0,0.25,0],[0,0.5,0],[0,0.75,0],[1,0.25,0],[1,0.5,0],[1,0.75,0]];outlineConnect=0;fontColor=#232F3E;fillColor=#C925D1;strokeColor=#ffffff;dashed=0;verticalLabelPosition=bottom;verticalAlign=top;align=center;html=1;fontSize=12;fontStyle=0;aspect=fixed;shape=mxgraph.aws4.resourceIcon;resIcon=mxgraph.aws4.dynamodb;" vertex="1" parent="1">
          <mxGeometry x="720" y="571" width="80" height="80" as="geometry" />
        </mxCell>
        <mxCell id="LnaqzA2VaRDY9GP4299t-23" value="" style="sketch=0;points=[[0,0,0],[0.25,0,0],[0.5,0,0],[0.75,0,0],[1,0,0],[0,1,0],[0.25,1,0],[0.5,1,0],[0.75,1,0],[1,1,0],[0,0.25,0],[0,0.5,0],[0,0.75,0],[1,0.25,0],[1,0.5,0],[1,0.75,0]];outlineConnect=0;fontColor=#232F3E;fillColor=#01A88D;strokeColor=#ffffff;dashed=0;verticalLabelPosition=bottom;verticalAlign=top;align=center;html=1;fontSize=12;fontStyle=0;aspect=fixed;shape=mxgraph.aws4.resourceIcon;resIcon=mxgraph.aws4.lex;" vertex="1" parent="1">
          <mxGeometry x="960" y="571" width="80" height="80" as="geometry" />
        </mxCell>
        <mxCell id="LnaqzA2VaRDY9GP4299t-30" value="" style="edgeStyle=orthogonalEdgeStyle;rounded=0;orthogonalLoop=1;jettySize=auto;html=1;" edge="1" parent="1" source="LnaqzA2VaRDY9GP4299t-25" target="LnaqzA2VaRDY9GP4299t-18">
          <mxGeometry relative="1" as="geometry">
            <Array as="points">
              <mxPoint x="1090" y="712" />
              <mxPoint x="1090" y="780" />
            </Array>
          </mxGeometry>
        </mxCell>
        <mxCell id="LnaqzA2VaRDY9GP4299t-25" value="Agents" style="sketch=0;pointerEvents=1;shadow=0;dashed=0;html=1;strokeColor=none;fillColor=#505050;labelPosition=center;verticalLabelPosition=bottom;verticalAlign=top;outlineConnect=0;align=center;shape=mxgraph.office.users.call_center_agent;" vertex="1" parent="1">
          <mxGeometry x="1140" y="685" width="46" height="55" as="geometry" />
        </mxCell>
        <mxCell id="LnaqzA2VaRDY9GP4299t-31" value="" style="edgeStyle=orthogonalEdgeStyle;rounded=0;orthogonalLoop=1;jettySize=auto;html=1;" edge="1" parent="1" source="LnaqzA2VaRDY9GP4299t-26" target="LnaqzA2VaRDY9GP4299t-18">
          <mxGeometry relative="1" as="geometry">
            <Array as="points">
              <mxPoint x="1090" y="848" />
              <mxPoint x="1090" y="780" />
            </Array>
          </mxGeometry>
        </mxCell>
        <mxCell id="LnaqzA2VaRDY9GP4299t-26" value="Customers" style="sketch=0;outlineConnect=0;fontColor=#232F3E;gradientColor=none;fillColor=#7EA6E0;strokeColor=none;dashed=0;verticalLabelPosition=bottom;verticalAlign=top;align=center;html=1;fontSize=12;fontStyle=0;aspect=fixed;pointerEvents=1;shape=mxgraph.aws4.user;" vertex="1" parent="1">
          <mxGeometry x="1135.5" y="820" width="55" height="55" as="geometry" />
        </mxCell>
        <mxCell id="LnaqzA2VaRDY9GP4299t-29" value="" style="edgeStyle=orthogonalEdgeStyle;rounded=0;orthogonalLoop=1;jettySize=auto;html=1;" edge="1" parent="1">
          <mxGeometry relative="1" as="geometry">
            <mxPoint x="269" y="500" as="sourcePoint" />
            <mxPoint x="269" y="550" as="targetPoint" />
          </mxGeometry>
        </mxCell>
        <mxCell id="LnaqzA2VaRDY9GP4299t-28" value="Administrators" style="outlineConnect=0;fontColor=#232F3E;gradientColor=none;fillColor=#67AB9F;strokeColor=none;dashed=0;verticalLabelPosition=top;verticalAlign=bottom;align=center;html=1;fontSize=12;fontStyle=0;aspect=fixed;pointerEvents=1;shape=mxgraph.aws4.user;labelPosition=center;" vertex="1" parent="1">
          <mxGeometry x="241.94" y="436" width="55" height="55" as="geometry" />
        </mxCell>
        <mxCell id="LnaqzA2VaRDY9GP4299t-32" value="AWS Cloud" style="sketch=0;outlineConnect=0;gradientColor=none;html=1;whiteSpace=wrap;fontSize=12;fontStyle=0;shape=mxgraph.aws4.group;grIcon=mxgraph.aws4.group_aws_cloud;strokeColor=#AAB7B8;fillColor=none;verticalAlign=top;align=left;spacingLeft=30;fontColor=#AAB7B8;dashed=0;" vertex="1" parent="1">
          <mxGeometry x="440" y="360" width="640" height="500" as="geometry" />
        </mxCell>
      </root>
    </mxGraphModel>
  </diagram>
</mxfile>
